<mxfile host="Electron" modified="2024-06-16T16:27:46.841Z" agent="Mozilla/5.0 (X11; Linux x86_64) AppleWebKit/537.36 (KHTML, like Gecko) draw.io/21.6.5 Chrome/114.0.5735.243 Electron/25.3.1 Safari/537.36" etag="HdqdD4s6kkYWlzZ7FF6L" version="21.6.5" type="device">
  <diagram name="Page-1" id="k-aQnBYSjIzPURcA25fs">
    <mxGraphModel dx="5330" dy="3255" grid="1" gridSize="10" guides="1" tooltips="1" connect="1" arrows="1" fold="1" page="0" pageScale="1" pageWidth="827" pageHeight="1169" math="0" shadow="0">
      <root>
        <mxCell id="0" />
        <mxCell id="1" parent="0" />
        <mxCell id="yFZBgvut5ynK9B7BmMMX-8" style="edgeStyle=orthogonalEdgeStyle;rounded=0;orthogonalLoop=1;jettySize=auto;html=1;exitX=1;exitY=0.5;exitDx=0;exitDy=0;" parent="1" source="yFZBgvut5ynK9B7BmMMX-5" target="yFZBgvut5ynK9B7BmMMX-6" edge="1">
          <mxGeometry relative="1" as="geometry">
            <mxPoint x="350" y="100" as="sourcePoint" />
          </mxGeometry>
        </mxCell>
        <mxCell id="yFZBgvut5ynK9B7BmMMX-6" value="Env" style="rounded=0;whiteSpace=wrap;html=1;fontFamily=Courier New;fontSize=15;fontStyle=1;fillColor=#dae8fc;strokeColor=#6c8ebf;" parent="1" vertex="1">
          <mxGeometry x="1310" y="80" width="160" height="40" as="geometry" />
        </mxCell>
        <mxCell id="yFZBgvut5ynK9B7BmMMX-11" style="edgeStyle=orthogonalEdgeStyle;rounded=0;orthogonalLoop=1;jettySize=auto;html=1;entryX=0;entryY=0.5;entryDx=0;entryDy=0;exitX=1;exitY=0.5;exitDx=0;exitDy=0;" parent="1" source="yFZBgvut5ynK9B7BmMMX-9" target="yFZBgvut5ynK9B7BmMMX-10" edge="1">
          <mxGeometry relative="1" as="geometry">
            <mxPoint x="350" y="140" as="sourcePoint" />
          </mxGeometry>
        </mxCell>
        <mxCell id="yFZBgvut5ynK9B7BmMMX-10" value="Kont" style="rounded=0;whiteSpace=wrap;html=1;fontFamily=Courier New;fontSize=15;fontStyle=1;fillColor=#dae8fc;strokeColor=#6c8ebf;" parent="1" vertex="1">
          <mxGeometry x="1070" y="120" width="160" height="40" as="geometry" />
        </mxCell>
        <mxCell id="yFZBgvut5ynK9B7BmMMX-14" style="edgeStyle=orthogonalEdgeStyle;rounded=0;orthogonalLoop=1;jettySize=auto;html=1;entryX=0;entryY=0.5;entryDx=0;entryDy=0;exitX=1;exitY=0.5;exitDx=0;exitDy=0;" parent="1" source="yFZBgvut5ynK9B7BmMMX-12" target="yFZBgvut5ynK9B7BmMMX-13" edge="1">
          <mxGeometry relative="1" as="geometry">
            <mxPoint x="350" y="180" as="sourcePoint" />
          </mxGeometry>
        </mxCell>
        <mxCell id="yFZBgvut5ynK9B7BmMMX-13" value="Fail" style="rounded=0;whiteSpace=wrap;html=1;fontFamily=Courier New;fontSize=15;fontStyle=1;fillColor=#dae8fc;strokeColor=#6c8ebf;" parent="1" vertex="1">
          <mxGeometry x="830" y="160" width="160" height="40" as="geometry" />
        </mxCell>
        <mxCell id="yFZBgvut5ynK9B7BmMMX-17" style="edgeStyle=orthogonalEdgeStyle;rounded=0;orthogonalLoop=1;jettySize=auto;html=1;entryX=0;entryY=0.5;entryDx=0;entryDy=0;" parent="1" source="yFZBgvut5ynK9B7BmMMX-15" target="yFZBgvut5ynK9B7BmMMX-16" edge="1">
          <mxGeometry relative="1" as="geometry">
            <mxPoint x="350" y="220" as="sourcePoint" />
          </mxGeometry>
        </mxCell>
        <mxCell id="yFZBgvut5ynK9B7BmMMX-20" style="edgeStyle=orthogonalEdgeStyle;rounded=0;orthogonalLoop=1;jettySize=auto;html=1;entryX=0;entryY=0.5;entryDx=0;entryDy=0;" parent="1" source="yFZBgvut5ynK9B7BmMMX-18" target="yFZBgvut5ynK9B7BmMMX-19" edge="1">
          <mxGeometry relative="1" as="geometry" />
        </mxCell>
        <mxCell id="yFZBgvut5ynK9B7BmMMX-21" value="" style="group" parent="1" vertex="1" connectable="0">
          <mxGeometry x="110" width="160" height="280" as="geometry" />
        </mxCell>
        <mxCell id="yFZBgvut5ynK9B7BmMMX-1" value="State" style="rounded=0;whiteSpace=wrap;html=1;fontFamily=Courier New;fontSize=15;fontStyle=1;fillColor=#dae8fc;strokeColor=#6c8ebf;" parent="yFZBgvut5ynK9B7BmMMX-21" vertex="1">
          <mxGeometry width="160" height="40" as="geometry" />
        </mxCell>
        <mxCell id="yFZBgvut5ynK9B7BmMMX-3" value="C (Control)" style="rounded=0;whiteSpace=wrap;html=1;fontFamily=Courier New;fontSize=15;fontStyle=0" parent="yFZBgvut5ynK9B7BmMMX-21" vertex="1">
          <mxGeometry y="40" width="160" height="40" as="geometry" />
        </mxCell>
        <mxCell id="yFZBgvut5ynK9B7BmMMX-5" value="E" style="rounded=0;whiteSpace=wrap;html=1;fontFamily=Courier New;fontSize=15;fontStyle=0" parent="yFZBgvut5ynK9B7BmMMX-21" vertex="1">
          <mxGeometry y="80" width="160" height="40" as="geometry" />
        </mxCell>
        <mxCell id="yFZBgvut5ynK9B7BmMMX-9" value="K" style="rounded=0;whiteSpace=wrap;html=1;fontFamily=Courier New;fontSize=15;fontStyle=0" parent="yFZBgvut5ynK9B7BmMMX-21" vertex="1">
          <mxGeometry y="120" width="160" height="40" as="geometry" />
        </mxCell>
        <mxCell id="yFZBgvut5ynK9B7BmMMX-12" value="F" style="rounded=0;whiteSpace=wrap;html=1;fontFamily=Courier New;fontSize=15;fontStyle=0" parent="yFZBgvut5ynK9B7BmMMX-21" vertex="1">
          <mxGeometry y="160" width="160" height="40" as="geometry" />
        </mxCell>
        <mxCell id="yFZBgvut5ynK9B7BmMMX-15" value="S" style="rounded=0;whiteSpace=wrap;html=1;fontFamily=Courier New;fontSize=15;fontStyle=0;fillColor=#d5e8d4;strokeColor=#82b366;" parent="yFZBgvut5ynK9B7BmMMX-21" vertex="1">
          <mxGeometry y="200" width="160" height="70" as="geometry" />
        </mxCell>
        <mxCell id="yFZBgvut5ynK9B7BmMMX-22" value="values (Stack)" style="rounded=0;whiteSpace=wrap;html=1;fontFamily=Courier New;fontSize=15;fontStyle=0;fillColor=#d5e8d4;strokeColor=#82b366;" parent="1" vertex="1">
          <mxGeometry x="1310" y="120" width="160" height="80" as="geometry" />
        </mxCell>
        <mxCell id="yFZBgvut5ynK9B7BmMMX-24" style="edgeStyle=orthogonalEdgeStyle;rounded=0;orthogonalLoop=1;jettySize=auto;html=1;entryX=1;entryY=0.5;entryDx=0;entryDy=0;" parent="1" source="yFZBgvut5ynK9B7BmMMX-23" target="yFZBgvut5ynK9B7BmMMX-6" edge="1">
          <mxGeometry relative="1" as="geometry">
            <Array as="points">
              <mxPoint x="1510" y="220" />
              <mxPoint x="1510" y="100" />
            </Array>
          </mxGeometry>
        </mxCell>
        <mxCell id="yFZBgvut5ynK9B7BmMMX-23" value="next (*Env)" style="rounded=0;whiteSpace=wrap;html=1;fontFamily=Courier New;fontSize=15;fontStyle=0" parent="1" vertex="1">
          <mxGeometry x="1310" y="200" width="160" height="40" as="geometry" />
        </mxCell>
        <mxCell id="yFZBgvut5ynK9B7BmMMX-25" value="body (Control)" style="rounded=0;whiteSpace=wrap;html=1;fontFamily=Courier New;fontSize=15;fontStyle=0" parent="1" vertex="1">
          <mxGeometry x="1070" y="160" width="160" height="40" as="geometry" />
        </mxCell>
        <mxCell id="yFZBgvut5ynK9B7BmMMX-26" value="env (*Env)" style="rounded=0;whiteSpace=wrap;html=1;fontFamily=Courier New;fontSize=15;fontStyle=0" parent="1" vertex="1">
          <mxGeometry x="1070" y="200" width="160" height="40" as="geometry" />
        </mxCell>
        <mxCell id="yFZBgvut5ynK9B7BmMMX-27" value="snapshot" style="rounded=0;whiteSpace=wrap;html=1;fontFamily=Courier New;fontSize=15;fontStyle=0;fillColor=#d5e8d4;strokeColor=#82b366;" parent="1" vertex="1">
          <mxGeometry x="1070" y="240" width="160" height="80" as="geometry" />
        </mxCell>
        <mxCell id="yFZBgvut5ynK9B7BmMMX-29" style="edgeStyle=orthogonalEdgeStyle;rounded=0;orthogonalLoop=1;jettySize=auto;html=1;entryX=1;entryY=0.5;entryDx=0;entryDy=0;" parent="1" source="yFZBgvut5ynK9B7BmMMX-28" target="yFZBgvut5ynK9B7BmMMX-10" edge="1">
          <mxGeometry relative="1" as="geometry">
            <Array as="points">
              <mxPoint x="1270" y="340" />
              <mxPoint x="1270" y="140" />
            </Array>
          </mxGeometry>
        </mxCell>
        <mxCell id="yFZBgvut5ynK9B7BmMMX-28" value="next (*Kont)" style="rounded=0;whiteSpace=wrap;html=1;fontFamily=Courier New;fontSize=15;fontStyle=0" parent="1" vertex="1">
          <mxGeometry x="1070" y="320" width="160" height="40" as="geometry" />
        </mxCell>
        <mxCell id="yFZBgvut5ynK9B7BmMMX-30" value="body (Control)" style="rounded=0;whiteSpace=wrap;html=1;fontFamily=Courier New;fontSize=15;fontStyle=0" parent="1" vertex="1">
          <mxGeometry x="830" y="200" width="160" height="40" as="geometry" />
        </mxCell>
        <mxCell id="yFZBgvut5ynK9B7BmMMX-31" value="env (*Env)" style="rounded=0;whiteSpace=wrap;html=1;fontFamily=Courier New;fontSize=15;fontStyle=0" parent="1" vertex="1">
          <mxGeometry x="830" y="240" width="160" height="40" as="geometry" />
        </mxCell>
        <mxCell id="yFZBgvut5ynK9B7BmMMX-32" value="kont (*Kont)" style="rounded=0;whiteSpace=wrap;html=1;fontFamily=Courier New;fontSize=15;fontStyle=0" parent="1" vertex="1">
          <mxGeometry x="830" y="280" width="160" height="40" as="geometry" />
        </mxCell>
        <mxCell id="yFZBgvut5ynK9B7BmMMX-33" value="snapshot" style="rounded=0;whiteSpace=wrap;html=1;fontFamily=Courier New;fontSize=15;fontStyle=0;fillColor=#d5e8d4;strokeColor=#82b366;" parent="1" vertex="1">
          <mxGeometry x="830" y="320" width="160" height="80" as="geometry" />
        </mxCell>
        <mxCell id="yFZBgvut5ynK9B7BmMMX-35" style="edgeStyle=orthogonalEdgeStyle;rounded=0;orthogonalLoop=1;jettySize=auto;html=1;entryX=1;entryY=0.5;entryDx=0;entryDy=0;" parent="1" source="yFZBgvut5ynK9B7BmMMX-34" target="yFZBgvut5ynK9B7BmMMX-13" edge="1">
          <mxGeometry relative="1" as="geometry">
            <Array as="points">
              <mxPoint x="1030" y="420" />
              <mxPoint x="1030" y="180" />
            </Array>
          </mxGeometry>
        </mxCell>
        <mxCell id="yFZBgvut5ynK9B7BmMMX-34" value="next (*Fail)" style="rounded=0;whiteSpace=wrap;html=1;fontFamily=Courier New;fontSize=15;fontStyle=0" parent="1" vertex="1">
          <mxGeometry x="830" y="400" width="160" height="40" as="geometry" />
        </mxCell>
        <mxCell id="yFZBgvut5ynK9B7BmMMX-42" value="Value" style="rounded=0;whiteSpace=wrap;html=1;fontFamily=Courier New;fontSize=15;fontStyle=1;fillColor=#d5e8d4;strokeColor=#82b366;" parent="1" vertex="1">
          <mxGeometry x="590" y="520" width="160" height="40" as="geometry" />
        </mxCell>
        <mxCell id="yFZBgvut5ynK9B7BmMMX-43" value="Vec" style="rounded=0;whiteSpace=wrap;html=1;fontFamily=Courier New;fontSize=15;fontStyle=1;fillColor=#e1d5e7;strokeColor=#9673a6;" parent="1" vertex="1">
          <mxGeometry x="830" y="520" width="160" height="40" as="geometry" />
        </mxCell>
        <mxCell id="yFZBgvut5ynK9B7BmMMX-44" value="size (Index)" style="rounded=0;whiteSpace=wrap;html=1;fontFamily=Courier New;fontSize=15;fontStyle=0" parent="1" vertex="1">
          <mxGeometry x="830" y="560" width="160" height="40" as="geometry" />
        </mxCell>
        <mxCell id="yFZBgvut5ynK9B7BmMMX-45" value="entries [Value]" style="rounded=0;whiteSpace=wrap;html=1;fontFamily=Courier New;fontSize=15;fontStyle=0;fillColor=#d5e8d4;strokeColor=#82b366;" parent="1" vertex="1">
          <mxGeometry x="830" y="600" width="160" height="80" as="geometry" />
        </mxCell>
        <mxCell id="yFZBgvut5ynK9B7BmMMX-46" value="Snapshot" style="rounded=0;whiteSpace=wrap;html=1;fontFamily=Courier New;fontSize=15;fontStyle=1;fillColor=#d5e8d4;strokeColor=#82b366;" parent="1" vertex="1">
          <mxGeometry x="350" y="520" width="160" height="40" as="geometry" />
        </mxCell>
        <mxCell id="yFZBgvut5ynK9B7BmMMX-47" value="capacity (Index)" style="rounded=0;whiteSpace=wrap;html=1;fontFamily=Courier New;fontSize=15;fontStyle=0" parent="1" vertex="1">
          <mxGeometry x="350" y="560" width="160" height="40" as="geometry" />
        </mxCell>
        <mxCell id="yFZBgvut5ynK9B7BmMMX-48" value="size (Index)" style="rounded=0;whiteSpace=wrap;html=1;fontFamily=Courier New;fontSize=15;fontStyle=0" parent="1" vertex="1">
          <mxGeometry x="350" y="600" width="160" height="40" as="geometry" />
        </mxCell>
        <mxCell id="yFZBgvut5ynK9B7BmMMX-49" value="entries *[Value]" style="rounded=0;whiteSpace=wrap;html=1;fontFamily=Courier New;fontSize=15;fontStyle=0" parent="1" vertex="1">
          <mxGeometry x="350" y="640" width="160" height="40" as="geometry" />
        </mxCell>
        <mxCell id="yFZBgvut5ynK9B7BmMMX-50" value="" style="group" parent="1" vertex="1" connectable="0">
          <mxGeometry x="350" y="270" width="160" height="160" as="geometry" />
        </mxCell>
        <mxCell id="yFZBgvut5ynK9B7BmMMX-19" value="ByteCodeArray" style="rounded=0;whiteSpace=wrap;html=1;fontFamily=Courier New;fontSize=15;fontStyle=1;fillColor=#dae8fc;strokeColor=#6c8ebf;" parent="yFZBgvut5ynK9B7BmMMX-50" vertex="1">
          <mxGeometry width="160" height="40" as="geometry" />
        </mxCell>
        <mxCell id="yFZBgvut5ynK9B7BmMMX-39" value="capacity (Index)" style="rounded=0;whiteSpace=wrap;html=1;fontFamily=Courier New;fontSize=15;fontStyle=0" parent="yFZBgvut5ynK9B7BmMMX-50" vertex="1">
          <mxGeometry y="40" width="160" height="40" as="geometry" />
        </mxCell>
        <mxCell id="yFZBgvut5ynK9B7BmMMX-40" value="size (Index)" style="rounded=0;whiteSpace=wrap;html=1;fontFamily=Courier New;fontSize=15;fontStyle=0" parent="yFZBgvut5ynK9B7BmMMX-50" vertex="1">
          <mxGeometry y="80" width="160" height="40" as="geometry" />
        </mxCell>
        <mxCell id="yFZBgvut5ynK9B7BmMMX-41" value="entries *[Byte]" style="rounded=0;whiteSpace=wrap;html=1;fontFamily=Courier New;fontSize=15;fontStyle=0" parent="yFZBgvut5ynK9B7BmMMX-50" vertex="1">
          <mxGeometry y="120" width="160" height="40" as="geometry" />
        </mxCell>
        <mxCell id="yFZBgvut5ynK9B7BmMMX-18" value="B" style="rounded=0;whiteSpace=wrap;html=1;fontFamily=Courier New;fontSize=15;fontStyle=0" parent="1" vertex="1">
          <mxGeometry x="110" y="270" width="160" height="40" as="geometry" />
        </mxCell>
        <mxCell id="yFZBgvut5ynK9B7BmMMX-52" value="" style="group" parent="1" vertex="1" connectable="0">
          <mxGeometry x="590" y="215" width="160" height="160" as="geometry" />
        </mxCell>
        <mxCell id="yFZBgvut5ynK9B7BmMMX-16" value="Stack" style="rounded=0;whiteSpace=wrap;html=1;fontFamily=Courier New;fontSize=15;fontStyle=1;fillColor=#d5e8d4;strokeColor=#82b366;" parent="yFZBgvut5ynK9B7BmMMX-52" vertex="1">
          <mxGeometry width="160" height="40" as="geometry" />
        </mxCell>
        <mxCell id="yFZBgvut5ynK9B7BmMMX-36" value="capacity (Index)" style="rounded=0;whiteSpace=wrap;html=1;fontFamily=Courier New;fontSize=15;fontStyle=0" parent="yFZBgvut5ynK9B7BmMMX-52" vertex="1">
          <mxGeometry y="40" width="160" height="40" as="geometry" />
        </mxCell>
        <mxCell id="yFZBgvut5ynK9B7BmMMX-37" value="size (Index)" style="rounded=0;whiteSpace=wrap;html=1;fontFamily=Courier New;fontSize=15;fontStyle=0" parent="yFZBgvut5ynK9B7BmMMX-52" vertex="1">
          <mxGeometry y="80" width="160" height="40" as="geometry" />
        </mxCell>
        <mxCell id="yFZBgvut5ynK9B7BmMMX-38" value="entries *[Value]" style="rounded=0;whiteSpace=wrap;html=1;fontFamily=Courier New;fontSize=15;fontStyle=0" parent="yFZBgvut5ynK9B7BmMMX-52" vertex="1">
          <mxGeometry y="120" width="160" height="40" as="geometry" />
        </mxCell>
        <mxCell id="FJl1J5I9ZmA5juQWh-69-3" value="callable" style="rounded=0;whiteSpace=wrap;html=1;fillColor=#dae8fc;strokeColor=#6c8ebf;" vertex="1" parent="1">
          <mxGeometry y="1320" width="80" height="80" as="geometry" />
        </mxCell>
        <mxCell id="FJl1J5I9ZmA5juQWh-69-4" value="arg 1" style="rounded=0;whiteSpace=wrap;html=1;" vertex="1" parent="1">
          <mxGeometry y="1400" width="80" height="80" as="geometry" />
        </mxCell>
        <mxCell id="FJl1J5I9ZmA5juQWh-69-5" value="arg 2" style="rounded=0;whiteSpace=wrap;html=1;" vertex="1" parent="1">
          <mxGeometry y="1480" width="80" height="80" as="geometry" />
        </mxCell>
        <mxCell id="FJl1J5I9ZmA5juQWh-69-6" value="arg 3" style="rounded=0;whiteSpace=wrap;html=1;" vertex="1" parent="1">
          <mxGeometry y="1560" width="80" height="80" as="geometry" />
        </mxCell>
        <mxCell id="FJl1J5I9ZmA5juQWh-69-7" value="pop callable" style="rounded=0;whiteSpace=wrap;html=1;fontSize=34;fillColor=#d5e8d4;strokeColor=#82b366;" vertex="1" parent="1">
          <mxGeometry x="340" y="1300" width="200" height="60" as="geometry" />
        </mxCell>
        <mxCell id="FJl1J5I9ZmA5juQWh-69-8" value="callable" style="rounded=0;whiteSpace=wrap;html=1;fillColor=#dae8fc;strokeColor=#6c8ebf;" vertex="1" parent="1">
          <mxGeometry x="560" y="1560" width="80" height="80" as="geometry" />
        </mxCell>
        <mxCell id="FJl1J5I9ZmA5juQWh-69-9" value="arg 1" style="rounded=0;whiteSpace=wrap;html=1;" vertex="1" parent="1">
          <mxGeometry x="440" y="1400" width="80" height="80" as="geometry" />
        </mxCell>
        <mxCell id="FJl1J5I9ZmA5juQWh-69-10" value="arg 2" style="rounded=0;whiteSpace=wrap;html=1;" vertex="1" parent="1">
          <mxGeometry x="440" y="1480" width="80" height="80" as="geometry" />
        </mxCell>
        <mxCell id="FJl1J5I9ZmA5juQWh-69-11" value="arg 3" style="rounded=0;whiteSpace=wrap;html=1;" vertex="1" parent="1">
          <mxGeometry x="440" y="1560" width="80" height="80" as="geometry" />
        </mxCell>
        <mxCell id="FJl1J5I9ZmA5juQWh-69-12" value="type callable" style="rounded=0;whiteSpace=wrap;html=1;fontSize=34;fillColor=#d5e8d4;strokeColor=#82b366;" vertex="1" parent="1">
          <mxGeometry x="680" y="1480" width="200" height="60" as="geometry" />
        </mxCell>
        <mxCell id="FJl1J5I9ZmA5juQWh-69-16" value="" style="shape=flexArrow;endArrow=classic;html=1;rounded=0;fillColor=#d5e8d4;strokeColor=#82b366;exitX=0.25;exitY=1;exitDx=0;exitDy=0;entryX=0.5;entryY=0;entryDx=0;entryDy=0;" edge="1" parent="1" source="FJl1J5I9ZmA5juQWh-69-12" target="FJl1J5I9ZmA5juQWh-69-17">
          <mxGeometry width="50" height="50" relative="1" as="geometry">
            <mxPoint x="730" y="1560" as="sourcePoint" />
            <mxPoint x="580" y="1950" as="targetPoint" />
          </mxGeometry>
        </mxCell>
        <mxCell id="FJl1J5I9ZmA5juQWh-69-17" value="pclo.pending == naargs" style="rounded=0;whiteSpace=wrap;html=1;fontSize=34;fillColor=#d5e8d4;strokeColor=#82b366;" vertex="1" parent="1">
          <mxGeometry x="480" y="1960" width="200" height="80" as="geometry" />
        </mxCell>
        <mxCell id="FJl1J5I9ZmA5juQWh-69-18" value="" style="shape=curlyBracket;whiteSpace=wrap;html=1;rounded=1;labelPosition=left;verticalLabelPosition=middle;align=right;verticalAlign=middle;" vertex="1" parent="1">
          <mxGeometry x="-30" y="1400" width="20" height="240" as="geometry" />
        </mxCell>
        <mxCell id="FJl1J5I9ZmA5juQWh-69-19" value="naargs" style="rounded=0;whiteSpace=wrap;html=1;fontSize=34;" vertex="1" parent="1">
          <mxGeometry x="-195" y="1490" width="160" height="60" as="geometry" />
        </mxCell>
        <mxCell id="FJl1J5I9ZmA5juQWh-69-20" value="" style="shape=flexArrow;endArrow=classic;html=1;rounded=0;fillColor=#d5e8d4;strokeColor=#82b366;entryX=0.5;entryY=0;entryDx=0;entryDy=0;exitX=0.25;exitY=1;exitDx=0;exitDy=0;" edge="1" parent="1" source="FJl1J5I9ZmA5juQWh-69-17" target="FJl1J5I9ZmA5juQWh-69-355">
          <mxGeometry width="50" height="50" relative="1" as="geometry">
            <mxPoint x="530" y="2050" as="sourcePoint" />
            <mxPoint x="340" y="2270" as="targetPoint" />
          </mxGeometry>
        </mxCell>
        <mxCell id="FJl1J5I9ZmA5juQWh-69-22" value="Y" style="rounded=0;whiteSpace=wrap;html=1;fontSize=34;fillColor=#d5e8d4;strokeColor=#82b366;" vertex="1" parent="1">
          <mxGeometry x="410" y="2100" width="60" height="60" as="geometry" />
        </mxCell>
        <mxCell id="FJl1J5I9ZmA5juQWh-69-35" value="callable" style="rounded=0;whiteSpace=wrap;html=1;fillColor=#dae8fc;strokeColor=#6c8ebf;" vertex="1" parent="1">
          <mxGeometry x="350" y="2450" width="80" height="80" as="geometry" />
        </mxCell>
        <mxCell id="FJl1J5I9ZmA5juQWh-69-36" value="arg 1" style="rounded=0;whiteSpace=wrap;html=1;fontStyle=1" vertex="1" parent="1">
          <mxGeometry x="190" y="2190" width="80" height="80" as="geometry" />
        </mxCell>
        <mxCell id="FJl1J5I9ZmA5juQWh-69-37" value="arg 2" style="rounded=0;whiteSpace=wrap;html=1;fontStyle=1" vertex="1" parent="1">
          <mxGeometry x="190" y="2270" width="80" height="80" as="geometry" />
        </mxCell>
        <mxCell id="FJl1J5I9ZmA5juQWh-69-38" value="arg 3" style="rounded=0;whiteSpace=wrap;html=1;fontStyle=1" vertex="1" parent="1">
          <mxGeometry x="190" y="2350" width="80" height="80" as="geometry" />
        </mxCell>
        <mxCell id="FJl1J5I9ZmA5juQWh-69-39" value="" style="shape=curlyBracket;whiteSpace=wrap;html=1;rounded=1;labelPosition=left;verticalLabelPosition=middle;align=right;verticalAlign=middle;" vertex="1" parent="1">
          <mxGeometry x="160" y="2190" width="20" height="240" as="geometry" />
        </mxCell>
        <mxCell id="FJl1J5I9ZmA5juQWh-69-40" value="naargs" style="rounded=0;whiteSpace=wrap;html=1;fontSize=34;" vertex="1" parent="1">
          <mxGeometry x="-10" y="2280" width="160" height="60" as="geometry" />
        </mxCell>
        <mxCell id="FJl1J5I9ZmA5juQWh-69-41" value="c 1" style="rounded=0;whiteSpace=wrap;html=1;fontStyle=1" vertex="1" parent="1">
          <mxGeometry x="190" y="2430" width="80" height="80" as="geometry" />
        </mxCell>
        <mxCell id="FJl1J5I9ZmA5juQWh-69-42" value="c 2" style="rounded=0;whiteSpace=wrap;html=1;fontStyle=1" vertex="1" parent="1">
          <mxGeometry x="190" y="2510" width="80" height="80" as="geometry" />
        </mxCell>
        <mxCell id="FJl1J5I9ZmA5juQWh-69-43" value="c 3" style="rounded=0;whiteSpace=wrap;html=1;fontStyle=1" vertex="1" parent="1">
          <mxGeometry x="190" y="2590" width="80" height="80" as="geometry" />
        </mxCell>
        <mxCell id="FJl1J5I9ZmA5juQWh-69-44" value="" style="shape=curlyBracket;whiteSpace=wrap;html=1;rounded=1;labelPosition=left;verticalLabelPosition=middle;align=right;verticalAlign=middle;" vertex="1" parent="1">
          <mxGeometry x="160" y="2430" width="20" height="240" as="geometry" />
        </mxCell>
        <mxCell id="FJl1J5I9ZmA5juQWh-69-45" value="ncaptured" style="rounded=0;whiteSpace=wrap;html=1;fontSize=34;" vertex="1" parent="1">
          <mxGeometry x="-10" y="2520" width="160" height="60" as="geometry" />
        </mxCell>
        <mxCell id="FJl1J5I9ZmA5juQWh-69-47" value="" style="shape=flexArrow;endArrow=classic;html=1;rounded=0;fillColor=#f8cecc;strokeColor=#b85450;" edge="1" parent="1">
          <mxGeometry width="50" height="50" relative="1" as="geometry">
            <mxPoint x="340" y="2540" as="sourcePoint" />
            <mxPoint x="280" y="2470" as="targetPoint" />
          </mxGeometry>
        </mxCell>
        <mxCell id="FJl1J5I9ZmA5juQWh-69-48" value="" style="shape=flexArrow;endArrow=classic;html=1;rounded=0;fillColor=#f8cecc;strokeColor=#b85450;" edge="1" parent="1">
          <mxGeometry width="50" height="50" relative="1" as="geometry">
            <mxPoint x="340" y="2550" as="sourcePoint" />
            <mxPoint x="280" y="2550" as="targetPoint" />
          </mxGeometry>
        </mxCell>
        <mxCell id="FJl1J5I9ZmA5juQWh-69-49" value="" style="shape=flexArrow;endArrow=classic;html=1;rounded=0;fillColor=#f8cecc;strokeColor=#b85450;" edge="1" parent="1">
          <mxGeometry width="50" height="50" relative="1" as="geometry">
            <mxPoint x="340" y="2560" as="sourcePoint" />
            <mxPoint x="280" y="2630" as="targetPoint" />
          </mxGeometry>
        </mxCell>
        <mxCell id="FJl1J5I9ZmA5juQWh-69-51" value="C" style="rounded=0;whiteSpace=wrap;html=1;" vertex="1" parent="1">
          <mxGeometry x="390" y="2530" width="40" height="40" as="geometry" />
        </mxCell>
        <mxCell id="FJl1J5I9ZmA5juQWh-69-52" value="E" style="rounded=0;whiteSpace=wrap;html=1;" vertex="1" parent="1">
          <mxGeometry x="350" y="2530" width="40" height="40" as="geometry" />
        </mxCell>
        <mxCell id="FJl1J5I9ZmA5juQWh-69-53" value="E" style="rounded=0;whiteSpace=wrap;html=1;" vertex="1" parent="1">
          <mxGeometry x="350" y="2630" width="40" height="40" as="geometry" />
        </mxCell>
        <mxCell id="FJl1J5I9ZmA5juQWh-69-54" value="" style="shape=flexArrow;endArrow=classic;html=1;rounded=0;exitX=0.5;exitY=1;exitDx=0;exitDy=0;" edge="1" parent="1" source="FJl1J5I9ZmA5juQWh-69-52" target="FJl1J5I9ZmA5juQWh-69-53">
          <mxGeometry width="50" height="50" relative="1" as="geometry">
            <mxPoint x="350" y="2570" as="sourcePoint" />
            <mxPoint x="290" y="2640" as="targetPoint" />
          </mxGeometry>
        </mxCell>
        <mxCell id="FJl1J5I9ZmA5juQWh-69-55" value="next" style="rounded=0;whiteSpace=wrap;html=1;" vertex="1" parent="1">
          <mxGeometry x="370" y="2580" width="40" height="20" as="geometry" />
        </mxCell>
        <mxCell id="FJl1J5I9ZmA5juQWh-69-56" value="State" style="rounded=0;whiteSpace=wrap;html=1;fillColor=#dae8fc;strokeColor=#6c8ebf;fontSize=15;fontStyle=1;fontFamily=Courier New;" vertex="1" parent="1">
          <mxGeometry x="550" y="2510" width="120" height="40" as="geometry" />
        </mxCell>
        <mxCell id="FJl1J5I9ZmA5juQWh-69-57" value="C" style="rounded=0;whiteSpace=wrap;html=1;" vertex="1" parent="1">
          <mxGeometry x="550" y="2550" width="120" height="40" as="geometry" />
        </mxCell>
        <mxCell id="FJl1J5I9ZmA5juQWh-69-58" value="E" style="rounded=0;whiteSpace=wrap;html=1;" vertex="1" parent="1">
          <mxGeometry x="550" y="2590" width="120" height="40" as="geometry" />
        </mxCell>
        <mxCell id="FJl1J5I9ZmA5juQWh-69-59" value="" style="shape=flexArrow;endArrow=classic;html=1;rounded=0;fillColor=#f8cecc;strokeColor=#b85450;" edge="1" parent="1">
          <mxGeometry width="50" height="50" relative="1" as="geometry">
            <mxPoint x="400" y="2650" as="sourcePoint" />
            <mxPoint x="540" y="2610" as="targetPoint" />
          </mxGeometry>
        </mxCell>
        <mxCell id="FJl1J5I9ZmA5juQWh-69-60" value="" style="shape=flexArrow;endArrow=classic;html=1;rounded=0;fillColor=#f8cecc;strokeColor=#b85450;" edge="1" parent="1">
          <mxGeometry width="50" height="50" relative="1" as="geometry">
            <mxPoint x="440" y="2550" as="sourcePoint" />
            <mxPoint x="540" y="2570" as="targetPoint" />
          </mxGeometry>
        </mxCell>
        <mxCell id="FJl1J5I9ZmA5juQWh-69-61" value="" style="shape=flexArrow;endArrow=classic;html=1;rounded=0;fillColor=#d5e8d4;strokeColor=#82b366;exitX=0.75;exitY=1;exitDx=0;exitDy=0;entryX=0;entryY=0.5;entryDx=0;entryDy=0;" edge="1" parent="1" source="FJl1J5I9ZmA5juQWh-69-17" target="FJl1J5I9ZmA5juQWh-69-63">
          <mxGeometry width="50" height="50" relative="1" as="geometry">
            <mxPoint x="700" y="2050" as="sourcePoint" />
            <mxPoint x="810" y="2160" as="targetPoint" />
          </mxGeometry>
        </mxCell>
        <mxCell id="FJl1J5I9ZmA5juQWh-69-62" value="N" style="rounded=0;whiteSpace=wrap;html=1;fontSize=34;fillColor=#d5e8d4;strokeColor=#82b366;" vertex="1" parent="1">
          <mxGeometry x="720" y="2070" width="60" height="60" as="geometry" />
        </mxCell>
        <mxCell id="FJl1J5I9ZmA5juQWh-69-63" value="naargs == 0" style="rounded=0;whiteSpace=wrap;html=1;fontSize=34;fillColor=#d5e8d4;strokeColor=#82b366;" vertex="1" parent="1">
          <mxGeometry x="820" y="2160" width="200" height="80" as="geometry" />
        </mxCell>
        <mxCell id="FJl1J5I9ZmA5juQWh-69-64" value="" style="shape=flexArrow;endArrow=classic;html=1;rounded=0;fillColor=#d5e8d4;strokeColor=#82b366;exitX=0.5;exitY=1;exitDx=0;exitDy=0;entryX=0;entryY=0;entryDx=0;entryDy=0;" edge="1" parent="1" source="FJl1J5I9ZmA5juQWh-69-63" target="FJl1J5I9ZmA5juQWh-69-70">
          <mxGeometry width="50" height="50" relative="1" as="geometry">
            <mxPoint x="910" y="2250" as="sourcePoint" />
            <mxPoint x="960" y="2360" as="targetPoint" />
          </mxGeometry>
        </mxCell>
        <mxCell id="FJl1J5I9ZmA5juQWh-69-65" value="Y" style="rounded=0;whiteSpace=wrap;html=1;fontSize=34;fillColor=#d5e8d4;strokeColor=#82b366;" vertex="1" parent="1">
          <mxGeometry x="890" y="2270" width="60" height="60" as="geometry" />
        </mxCell>
        <mxCell id="FJl1J5I9ZmA5juQWh-69-66" value="callable" style="rounded=0;whiteSpace=wrap;html=1;fillColor=#dae8fc;strokeColor=#6c8ebf;" vertex="1" parent="1">
          <mxGeometry x="990" y="2380" width="80" height="80" as="geometry" />
        </mxCell>
        <mxCell id="FJl1J5I9ZmA5juQWh-69-70" value="push callable" style="rounded=0;whiteSpace=wrap;html=1;fontSize=34;fillColor=#d5e8d4;strokeColor=#82b366;" vertex="1" parent="1">
          <mxGeometry x="990" y="2300" width="210" height="60" as="geometry" />
        </mxCell>
        <mxCell id="FJl1J5I9ZmA5juQWh-69-71" value="" style="shape=flexArrow;endArrow=classic;html=1;rounded=0;fillColor=#d5e8d4;strokeColor=#82b366;exitX=1;exitY=0.5;exitDx=0;exitDy=0;entryX=0;entryY=0.5;entryDx=0;entryDy=0;" edge="1" parent="1" source="FJl1J5I9ZmA5juQWh-69-63" target="FJl1J5I9ZmA5juQWh-69-74">
          <mxGeometry width="50" height="50" relative="1" as="geometry">
            <mxPoint x="1050" y="2200" as="sourcePoint" />
            <mxPoint x="1230" y="2180" as="targetPoint" />
          </mxGeometry>
        </mxCell>
        <mxCell id="FJl1J5I9ZmA5juQWh-69-72" value="N" style="rounded=0;whiteSpace=wrap;html=1;fontSize=34;fillColor=#d5e8d4;strokeColor=#82b366;" vertex="1" parent="1">
          <mxGeometry x="1090" y="2130" width="60" height="60" as="geometry" />
        </mxCell>
        <mxCell id="FJl1J5I9ZmA5juQWh-69-74" value="naargs&amp;nbsp; &amp;lt; pclo.pending" style="rounded=0;whiteSpace=wrap;html=1;fontSize=34;fillColor=#d5e8d4;strokeColor=#82b366;" vertex="1" parent="1">
          <mxGeometry x="1240" y="2110" width="200" height="80" as="geometry" />
        </mxCell>
        <mxCell id="FJl1J5I9ZmA5juQWh-69-75" value="" style="shape=flexArrow;endArrow=classic;html=1;rounded=0;fillColor=#d5e8d4;strokeColor=#82b366;exitX=1;exitY=0.5;exitDx=0;exitDy=0;entryX=0;entryY=0.5;entryDx=0;entryDy=0;" edge="1" parent="1" source="FJl1J5I9ZmA5juQWh-69-74" target="FJl1J5I9ZmA5juQWh-69-77">
          <mxGeometry width="50" height="50" relative="1" as="geometry">
            <mxPoint x="1470" y="2140" as="sourcePoint" />
            <mxPoint x="1650" y="2120" as="targetPoint" />
          </mxGeometry>
        </mxCell>
        <mxCell id="FJl1J5I9ZmA5juQWh-69-76" value="N" style="rounded=0;whiteSpace=wrap;html=1;fontSize=34;fillColor=#d5e8d4;strokeColor=#82b366;" vertex="1" parent="1">
          <mxGeometry x="1520" y="2070" width="60" height="60" as="geometry" />
        </mxCell>
        <mxCell id="FJl1J5I9ZmA5juQWh-69-77" value="ERROR" style="rounded=0;whiteSpace=wrap;html=1;fontSize=34;fillColor=#d5e8d4;strokeColor=#82b366;" vertex="1" parent="1">
          <mxGeometry x="1670" y="2080" width="200" height="80" as="geometry" />
        </mxCell>
        <mxCell id="FJl1J5I9ZmA5juQWh-69-78" value="" style="shape=flexArrow;endArrow=classic;html=1;rounded=0;fillColor=#d5e8d4;strokeColor=#82b366;exitX=0.75;exitY=1;exitDx=0;exitDy=0;entryX=0;entryY=0;entryDx=0;entryDy=0;" edge="1" parent="1" source="FJl1J5I9ZmA5juQWh-69-74" target="FJl1J5I9ZmA5juQWh-69-92">
          <mxGeometry width="50" height="50" relative="1" as="geometry">
            <mxPoint x="1370" y="2230" as="sourcePoint" />
            <mxPoint x="1500" y="2360" as="targetPoint" />
          </mxGeometry>
        </mxCell>
        <mxCell id="FJl1J5I9ZmA5juQWh-69-79" value="Y" style="rounded=0;whiteSpace=wrap;html=1;fontSize=34;fillColor=#d5e8d4;strokeColor=#82b366;" vertex="1" parent="1">
          <mxGeometry x="1470" y="2270" width="60" height="60" as="geometry" />
        </mxCell>
        <mxCell id="FJl1J5I9ZmA5juQWh-69-80" value="callable" style="rounded=0;whiteSpace=wrap;html=1;fillColor=#dae8fc;strokeColor=#6c8ebf;" vertex="1" parent="1">
          <mxGeometry x="1640" y="2400" width="80" height="80" as="geometry" />
        </mxCell>
        <mxCell id="FJl1J5I9ZmA5juQWh-69-81" value="C" style="rounded=0;whiteSpace=wrap;html=1;" vertex="1" parent="1">
          <mxGeometry x="1680" y="2480" width="40" height="40" as="geometry" />
        </mxCell>
        <mxCell id="FJl1J5I9ZmA5juQWh-69-82" value="E" style="rounded=0;whiteSpace=wrap;html=1;" vertex="1" parent="1">
          <mxGeometry x="1640" y="2480" width="40" height="40" as="geometry" />
        </mxCell>
        <mxCell id="FJl1J5I9ZmA5juQWh-69-83" value="arg 1" style="rounded=0;whiteSpace=wrap;html=1;fontStyle=1" vertex="1" parent="1">
          <mxGeometry x="1480" y="2400" width="80" height="80" as="geometry" />
        </mxCell>
        <mxCell id="FJl1J5I9ZmA5juQWh-69-84" value="arg 2" style="rounded=0;whiteSpace=wrap;html=1;fontStyle=1" vertex="1" parent="1">
          <mxGeometry x="1480" y="2480" width="80" height="80" as="geometry" />
        </mxCell>
        <mxCell id="FJl1J5I9ZmA5juQWh-69-85" value="arg 3" style="rounded=0;whiteSpace=wrap;html=1;fontStyle=1" vertex="1" parent="1">
          <mxGeometry x="1480" y="2560" width="80" height="80" as="geometry" />
        </mxCell>
        <mxCell id="FJl1J5I9ZmA5juQWh-69-88" value="E" style="rounded=0;whiteSpace=wrap;html=1;" vertex="1" parent="1">
          <mxGeometry x="1640" y="2580" width="40" height="40" as="geometry" />
        </mxCell>
        <mxCell id="FJl1J5I9ZmA5juQWh-69-89" value="" style="shape=flexArrow;endArrow=classic;html=1;rounded=0;exitX=0.5;exitY=1;exitDx=0;exitDy=0;" edge="1" parent="1" target="FJl1J5I9ZmA5juQWh-69-88">
          <mxGeometry width="50" height="50" relative="1" as="geometry">
            <mxPoint x="1660" y="2520" as="sourcePoint" />
            <mxPoint x="1580" y="2590" as="targetPoint" />
          </mxGeometry>
        </mxCell>
        <mxCell id="FJl1J5I9ZmA5juQWh-69-90" value="next" style="rounded=0;whiteSpace=wrap;html=1;" vertex="1" parent="1">
          <mxGeometry x="1630" y="2530" width="40" height="20" as="geometry" />
        </mxCell>
        <mxCell id="FJl1J5I9ZmA5juQWh-69-91" value="E" style="rounded=0;whiteSpace=wrap;html=1;" vertex="1" parent="1">
          <mxGeometry x="1760" y="2520" width="40" height="40" as="geometry" />
        </mxCell>
        <mxCell id="FJl1J5I9ZmA5juQWh-69-92" value="new env (naargs + pclo.ncaptured)" style="rounded=0;whiteSpace=wrap;html=1;fontSize=34;fillColor=#d5e8d4;strokeColor=#82b366;" vertex="1" parent="1">
          <mxGeometry x="1790" y="2410" width="270" height="120" as="geometry" />
        </mxCell>
        <mxCell id="FJl1J5I9ZmA5juQWh-69-93" value="" style="shape=flexArrow;endArrow=classic;html=1;rounded=0;exitX=0;exitY=1;exitDx=0;exitDy=0;entryX=1;entryY=0.5;entryDx=0;entryDy=0;" edge="1" parent="1" source="FJl1J5I9ZmA5juQWh-69-91" target="FJl1J5I9ZmA5juQWh-69-88">
          <mxGeometry width="50" height="50" relative="1" as="geometry">
            <mxPoint x="1670" y="2530" as="sourcePoint" />
            <mxPoint x="1690" y="2600" as="targetPoint" />
          </mxGeometry>
        </mxCell>
        <mxCell id="FJl1J5I9ZmA5juQWh-69-94" value="callable" style="rounded=0;whiteSpace=wrap;html=1;fillColor=#dae8fc;strokeColor=#6c8ebf;" vertex="1" parent="1">
          <mxGeometry x="1640" y="2760" width="80" height="80" as="geometry" />
        </mxCell>
        <mxCell id="FJl1J5I9ZmA5juQWh-69-95" value="C" style="rounded=0;whiteSpace=wrap;html=1;" vertex="1" parent="1">
          <mxGeometry x="1680" y="2840" width="40" height="40" as="geometry" />
        </mxCell>
        <mxCell id="FJl1J5I9ZmA5juQWh-69-96" value="E" style="rounded=0;whiteSpace=wrap;html=1;" vertex="1" parent="1">
          <mxGeometry x="1640" y="2840" width="40" height="40" as="geometry" />
        </mxCell>
        <mxCell id="FJl1J5I9ZmA5juQWh-69-97" value="arg 1" style="rounded=0;whiteSpace=wrap;html=1;fontStyle=1" vertex="1" parent="1">
          <mxGeometry x="1480" y="2760" width="80" height="80" as="geometry" />
        </mxCell>
        <mxCell id="FJl1J5I9ZmA5juQWh-69-98" value="arg 2" style="rounded=0;whiteSpace=wrap;html=1;fontStyle=1" vertex="1" parent="1">
          <mxGeometry x="1480" y="2840" width="80" height="80" as="geometry" />
        </mxCell>
        <mxCell id="FJl1J5I9ZmA5juQWh-69-99" value="arg 3" style="rounded=0;whiteSpace=wrap;html=1;fontStyle=1" vertex="1" parent="1">
          <mxGeometry x="1480" y="2920" width="80" height="80" as="geometry" />
        </mxCell>
        <mxCell id="FJl1J5I9ZmA5juQWh-69-102" value="E" style="rounded=0;whiteSpace=wrap;html=1;" vertex="1" parent="1">
          <mxGeometry x="1640" y="2940" width="40" height="40" as="geometry" />
        </mxCell>
        <mxCell id="FJl1J5I9ZmA5juQWh-69-103" value="" style="shape=flexArrow;endArrow=classic;html=1;rounded=0;exitX=0.5;exitY=1;exitDx=0;exitDy=0;" edge="1" parent="1" target="FJl1J5I9ZmA5juQWh-69-102">
          <mxGeometry width="50" height="50" relative="1" as="geometry">
            <mxPoint x="1660" y="2880" as="sourcePoint" />
            <mxPoint x="1580" y="2950" as="targetPoint" />
          </mxGeometry>
        </mxCell>
        <mxCell id="FJl1J5I9ZmA5juQWh-69-105" value="E" style="rounded=0;whiteSpace=wrap;html=1;" vertex="1" parent="1">
          <mxGeometry x="1760" y="2880" width="40" height="40" as="geometry" />
        </mxCell>
        <mxCell id="FJl1J5I9ZmA5juQWh-69-106" value="copy values from pclo to new env" style="rounded=0;whiteSpace=wrap;html=1;fontSize=34;fillColor=#d5e8d4;strokeColor=#82b366;" vertex="1" parent="1">
          <mxGeometry x="1760" y="2730" width="270" height="120" as="geometry" />
        </mxCell>
        <mxCell id="FJl1J5I9ZmA5juQWh-69-107" value="" style="shape=flexArrow;endArrow=classic;html=1;rounded=0;exitX=0;exitY=1;exitDx=0;exitDy=0;entryX=1;entryY=0.5;entryDx=0;entryDy=0;" edge="1" parent="1" source="FJl1J5I9ZmA5juQWh-69-105" target="FJl1J5I9ZmA5juQWh-69-102">
          <mxGeometry width="50" height="50" relative="1" as="geometry">
            <mxPoint x="1670" y="2890" as="sourcePoint" />
            <mxPoint x="1690" y="2960" as="targetPoint" />
          </mxGeometry>
        </mxCell>
        <mxCell id="FJl1J5I9ZmA5juQWh-69-108" value="" style="shape=flexArrow;endArrow=classic;html=1;rounded=0;fillColor=#f8cecc;strokeColor=#b85450;exitX=1;exitY=0.5;exitDx=0;exitDy=0;" edge="1" parent="1" source="FJl1J5I9ZmA5juQWh-69-96">
          <mxGeometry width="50" height="50" relative="1" as="geometry">
            <mxPoint x="1240" y="2790" as="sourcePoint" />
            <mxPoint x="1750" y="2890" as="targetPoint" />
          </mxGeometry>
        </mxCell>
        <mxCell id="FJl1J5I9ZmA5juQWh-69-109" value="" style="shape=flexArrow;endArrow=classic;html=1;rounded=0;fillColor=#d5e8d4;strokeColor=#82b366;exitX=0.5;exitY=1;exitDx=0;exitDy=0;entryX=0.5;entryY=0;entryDx=0;entryDy=0;" edge="1" parent="1" source="FJl1J5I9ZmA5juQWh-69-92" target="FJl1J5I9ZmA5juQWh-69-106">
          <mxGeometry width="50" height="50" relative="1" as="geometry">
            <mxPoint x="1900" y="2590" as="sourcePoint" />
            <mxPoint x="1900" y="2680" as="targetPoint" />
          </mxGeometry>
        </mxCell>
        <mxCell id="FJl1J5I9ZmA5juQWh-69-110" value="callable" style="rounded=0;whiteSpace=wrap;html=1;fillColor=#dae8fc;strokeColor=#6c8ebf;" vertex="1" parent="1">
          <mxGeometry x="1320" y="3070" width="80" height="80" as="geometry" />
        </mxCell>
        <mxCell id="FJl1J5I9ZmA5juQWh-69-111" value="C" style="rounded=0;whiteSpace=wrap;html=1;" vertex="1" parent="1">
          <mxGeometry x="1360" y="3150" width="40" height="40" as="geometry" />
        </mxCell>
        <mxCell id="FJl1J5I9ZmA5juQWh-69-112" value="E" style="rounded=0;whiteSpace=wrap;html=1;" vertex="1" parent="1">
          <mxGeometry x="1320" y="3150" width="40" height="40" as="geometry" />
        </mxCell>
        <mxCell id="FJl1J5I9ZmA5juQWh-69-113" value="arg 1" style="rounded=0;whiteSpace=wrap;html=1;fontStyle=1" vertex="1" parent="1">
          <mxGeometry x="1160" y="3070" width="80" height="80" as="geometry" />
        </mxCell>
        <mxCell id="FJl1J5I9ZmA5juQWh-69-114" value="arg 2" style="rounded=0;whiteSpace=wrap;html=1;fontStyle=1" vertex="1" parent="1">
          <mxGeometry x="1160" y="3150" width="80" height="80" as="geometry" />
        </mxCell>
        <mxCell id="FJl1J5I9ZmA5juQWh-69-115" value="arg 3" style="rounded=0;whiteSpace=wrap;html=1;fontStyle=1" vertex="1" parent="1">
          <mxGeometry x="1160" y="3230" width="80" height="80" as="geometry" />
        </mxCell>
        <mxCell id="FJl1J5I9ZmA5juQWh-69-116" value="" style="shape=curlyBracket;whiteSpace=wrap;html=1;rounded=1;labelPosition=left;verticalLabelPosition=middle;align=right;verticalAlign=middle;" vertex="1" parent="1">
          <mxGeometry x="1130" y="3070" width="20" height="240" as="geometry" />
        </mxCell>
        <mxCell id="FJl1J5I9ZmA5juQWh-69-117" value="naargs" style="rounded=0;whiteSpace=wrap;html=1;fontSize=34;" vertex="1" parent="1">
          <mxGeometry x="960" y="3160" width="160" height="60" as="geometry" />
        </mxCell>
        <mxCell id="FJl1J5I9ZmA5juQWh-69-118" value="E" style="rounded=0;whiteSpace=wrap;html=1;" vertex="1" parent="1">
          <mxGeometry x="1320" y="3250" width="40" height="40" as="geometry" />
        </mxCell>
        <mxCell id="FJl1J5I9ZmA5juQWh-69-119" value="" style="shape=flexArrow;endArrow=classic;html=1;rounded=0;exitX=0.5;exitY=1;exitDx=0;exitDy=0;" edge="1" parent="1" target="FJl1J5I9ZmA5juQWh-69-118">
          <mxGeometry width="50" height="50" relative="1" as="geometry">
            <mxPoint x="1340" y="3190" as="sourcePoint" />
            <mxPoint x="1260" y="3260" as="targetPoint" />
          </mxGeometry>
        </mxCell>
        <mxCell id="FJl1J5I9ZmA5juQWh-69-120" value="next" style="rounded=0;whiteSpace=wrap;html=1;" vertex="1" parent="1">
          <mxGeometry x="1320" y="3290" width="40" height="20" as="geometry" />
        </mxCell>
        <mxCell id="FJl1J5I9ZmA5juQWh-69-121" value="E" style="rounded=0;whiteSpace=wrap;html=1;" vertex="1" parent="1">
          <mxGeometry x="1440" y="3190" width="40" height="40" as="geometry" />
        </mxCell>
        <mxCell id="FJl1J5I9ZmA5juQWh-69-122" value="copy additional args after them" style="rounded=0;whiteSpace=wrap;html=1;fontSize=34;fillColor=#d5e8d4;strokeColor=#82b366;" vertex="1" parent="1">
          <mxGeometry x="1420" y="3060" width="270" height="120" as="geometry" />
        </mxCell>
        <mxCell id="FJl1J5I9ZmA5juQWh-69-123" value="" style="shape=flexArrow;endArrow=classic;html=1;rounded=0;exitX=0;exitY=1;exitDx=0;exitDy=0;entryX=1;entryY=0.5;entryDx=0;entryDy=0;" edge="1" parent="1" source="FJl1J5I9ZmA5juQWh-69-121" target="FJl1J5I9ZmA5juQWh-69-118">
          <mxGeometry width="50" height="50" relative="1" as="geometry">
            <mxPoint x="1350" y="3200" as="sourcePoint" />
            <mxPoint x="1370" y="3270" as="targetPoint" />
          </mxGeometry>
        </mxCell>
        <mxCell id="FJl1J5I9ZmA5juQWh-69-124" value="" style="shape=flexArrow;endArrow=classic;html=1;rounded=0;fillColor=#f8cecc;strokeColor=#b85450;" edge="1" parent="1">
          <mxGeometry width="50" height="50" relative="1" as="geometry">
            <mxPoint x="1250" y="3110" as="sourcePoint" />
            <mxPoint x="1430" y="3200" as="targetPoint" />
          </mxGeometry>
        </mxCell>
        <mxCell id="FJl1J5I9ZmA5juQWh-69-125" value="" style="shape=flexArrow;endArrow=classic;html=1;rounded=0;fillColor=#f8cecc;strokeColor=#b85450;" edge="1" parent="1">
          <mxGeometry width="50" height="50" relative="1" as="geometry">
            <mxPoint x="1250" y="3190" as="sourcePoint" />
            <mxPoint x="1430" y="3210" as="targetPoint" />
          </mxGeometry>
        </mxCell>
        <mxCell id="FJl1J5I9ZmA5juQWh-69-126" value="" style="shape=flexArrow;endArrow=classic;html=1;rounded=0;fillColor=#f8cecc;strokeColor=#b85450;" edge="1" parent="1">
          <mxGeometry width="50" height="50" relative="1" as="geometry">
            <mxPoint x="1250" y="3270" as="sourcePoint" />
            <mxPoint x="1420" y="3220" as="targetPoint" />
          </mxGeometry>
        </mxCell>
        <mxCell id="FJl1J5I9ZmA5juQWh-69-127" value="" style="shape=flexArrow;endArrow=classic;html=1;rounded=0;fillColor=#d5e8d4;strokeColor=#82b366;exitX=0.5;exitY=1;exitDx=0;exitDy=0;" edge="1" parent="1" source="FJl1J5I9ZmA5juQWh-69-106" target="FJl1J5I9ZmA5juQWh-69-122">
          <mxGeometry width="50" height="50" relative="1" as="geometry">
            <mxPoint x="1650" y="3010" as="sourcePoint" />
            <mxPoint x="1560" y="3100" as="targetPoint" />
          </mxGeometry>
        </mxCell>
        <mxCell id="FJl1J5I9ZmA5juQWh-69-128" value="" style="shape=flexArrow;endArrow=classic;html=1;rounded=0;fillColor=#d5e8d4;strokeColor=#82b366;exitX=0.978;exitY=1.015;exitDx=0;exitDy=0;exitPerimeter=0;entryX=0;entryY=0.5;entryDx=0;entryDy=0;" edge="1" parent="1" source="FJl1J5I9ZmA5juQWh-69-122" target="FJl1J5I9ZmA5juQWh-69-141">
          <mxGeometry width="50" height="50" relative="1" as="geometry">
            <mxPoint x="1500" y="3160" as="sourcePoint" />
            <mxPoint x="1630" y="3250" as="targetPoint" />
          </mxGeometry>
        </mxCell>
        <mxCell id="FJl1J5I9ZmA5juQWh-69-129" value="callable" style="rounded=0;whiteSpace=wrap;html=1;fillColor=#dae8fc;strokeColor=#6c8ebf;" vertex="1" parent="1">
          <mxGeometry x="2020" y="3490" width="80" height="80" as="geometry" />
        </mxCell>
        <mxCell id="FJl1J5I9ZmA5juQWh-69-130" value="C" style="rounded=0;whiteSpace=wrap;html=1;" vertex="1" parent="1">
          <mxGeometry x="2060" y="3570" width="40" height="40" as="geometry" />
        </mxCell>
        <mxCell id="FJl1J5I9ZmA5juQWh-69-131" value="E" style="rounded=0;whiteSpace=wrap;html=1;" vertex="1" parent="1">
          <mxGeometry x="2020" y="3570" width="40" height="40" as="geometry" />
        </mxCell>
        <mxCell id="FJl1J5I9ZmA5juQWh-69-132" value="arg 1" style="rounded=0;whiteSpace=wrap;html=1;fontStyle=1" vertex="1" parent="1">
          <mxGeometry x="1860" y="3490" width="80" height="80" as="geometry" />
        </mxCell>
        <mxCell id="FJl1J5I9ZmA5juQWh-69-133" value="arg 2" style="rounded=0;whiteSpace=wrap;html=1;fontStyle=1" vertex="1" parent="1">
          <mxGeometry x="1860" y="3570" width="80" height="80" as="geometry" />
        </mxCell>
        <mxCell id="FJl1J5I9ZmA5juQWh-69-134" value="arg 3" style="rounded=0;whiteSpace=wrap;html=1;fontStyle=1" vertex="1" parent="1">
          <mxGeometry x="1860" y="3650" width="80" height="80" as="geometry" />
        </mxCell>
        <mxCell id="FJl1J5I9ZmA5juQWh-69-135" value="" style="shape=curlyBracket;whiteSpace=wrap;html=1;rounded=1;labelPosition=left;verticalLabelPosition=middle;align=right;verticalAlign=middle;" vertex="1" parent="1">
          <mxGeometry x="1830" y="3490" width="20" height="240" as="geometry" />
        </mxCell>
        <mxCell id="FJl1J5I9ZmA5juQWh-69-136" value="naargs" style="rounded=0;whiteSpace=wrap;html=1;fontSize=34;" vertex="1" parent="1">
          <mxGeometry x="1660" y="3580" width="160" height="60" as="geometry" />
        </mxCell>
        <mxCell id="FJl1J5I9ZmA5juQWh-69-137" value="E" style="rounded=0;whiteSpace=wrap;html=1;" vertex="1" parent="1">
          <mxGeometry x="2020" y="3670" width="40" height="40" as="geometry" />
        </mxCell>
        <mxCell id="FJl1J5I9ZmA5juQWh-69-138" value="" style="shape=flexArrow;endArrow=classic;html=1;rounded=0;exitX=0.5;exitY=1;exitDx=0;exitDy=0;" edge="1" parent="1" target="FJl1J5I9ZmA5juQWh-69-137">
          <mxGeometry width="50" height="50" relative="1" as="geometry">
            <mxPoint x="2040" y="3610" as="sourcePoint" />
            <mxPoint x="1960" y="3680" as="targetPoint" />
          </mxGeometry>
        </mxCell>
        <mxCell id="FJl1J5I9ZmA5juQWh-69-139" value="next" style="rounded=0;whiteSpace=wrap;html=1;" vertex="1" parent="1">
          <mxGeometry x="2020" y="3710" width="40" height="20" as="geometry" />
        </mxCell>
        <mxCell id="FJl1J5I9ZmA5juQWh-69-140" value="E" style="rounded=0;whiteSpace=wrap;html=1;" vertex="1" parent="1">
          <mxGeometry x="1860" y="3450" width="40" height="40" as="geometry" />
        </mxCell>
        <mxCell id="FJl1J5I9ZmA5juQWh-69-141" value="create new pclo and push" style="rounded=0;whiteSpace=wrap;html=1;fontSize=34;fillColor=#d5e8d4;strokeColor=#82b366;" vertex="1" parent="1">
          <mxGeometry x="1780" y="3230" width="270" height="120" as="geometry" />
        </mxCell>
        <mxCell id="FJl1J5I9ZmA5juQWh-69-142" value="" style="shape=flexArrow;endArrow=classic;html=1;rounded=0;exitX=0.5;exitY=1;exitDx=0;exitDy=0;entryX=0;entryY=0.25;entryDx=0;entryDy=0;" edge="1" parent="1" source="FJl1J5I9ZmA5juQWh-69-140" target="FJl1J5I9ZmA5juQWh-69-137">
          <mxGeometry width="50" height="50" relative="1" as="geometry">
            <mxPoint x="2050" y="3620" as="sourcePoint" />
            <mxPoint x="2070" y="3690" as="targetPoint" />
          </mxGeometry>
        </mxCell>
        <mxCell id="FJl1J5I9ZmA5juQWh-69-146" value="C" style="rounded=0;whiteSpace=wrap;html=1;" vertex="1" parent="1">
          <mxGeometry x="1900" y="3450" width="40" height="40" as="geometry" />
        </mxCell>
        <mxCell id="FJl1J5I9ZmA5juQWh-69-147" value="callable" style="rounded=0;whiteSpace=wrap;html=1;fillColor=#dae8fc;strokeColor=#6c8ebf;" vertex="1" parent="1">
          <mxGeometry x="1860" y="3370" width="80" height="80" as="geometry" />
        </mxCell>
        <mxCell id="FJl1J5I9ZmA5juQWh-69-148" value="Odd, I&#39;d expect it to remove the args from the stack here" style="shape=note;whiteSpace=wrap;html=1;backgroundOutline=1;darkOpacity=0.05;fillColor=#fff2cc;strokeColor=#d6b656;" vertex="1" parent="1">
          <mxGeometry x="1910" y="3760" width="80" height="100" as="geometry" />
        </mxCell>
        <mxCell id="FJl1J5I9ZmA5juQWh-69-150" value="" style="shape=flexArrow;endArrow=classic;html=1;rounded=0;fillColor=#d5e8d4;strokeColor=#82b366;exitX=1;exitY=0.5;exitDx=0;exitDy=0;entryX=0;entryY=0.5;entryDx=0;entryDy=0;" edge="1" parent="1" source="FJl1J5I9ZmA5juQWh-69-12" target="FJl1J5I9ZmA5juQWh-69-151">
          <mxGeometry width="50" height="50" relative="1" as="geometry">
            <mxPoint x="890" y="1510" as="sourcePoint" />
            <mxPoint x="1070" y="1600" as="targetPoint" />
          </mxGeometry>
        </mxCell>
        <mxCell id="FJl1J5I9ZmA5juQWh-69-151" value="clo.pending == naargs" style="rounded=0;whiteSpace=wrap;html=1;fontSize=34;fillColor=#d5e8d4;strokeColor=#82b366;" vertex="1" parent="1">
          <mxGeometry x="1080" y="1560" width="200" height="80" as="geometry" />
        </mxCell>
        <mxCell id="FJl1J5I9ZmA5juQWh-69-152" value="" style="shape=flexArrow;endArrow=classic;html=1;rounded=0;fillColor=#d5e8d4;strokeColor=#82b366;exitX=1;exitY=0;exitDx=0;exitDy=0;entryX=0;entryY=0.5;entryDx=0;entryDy=0;" edge="1" parent="1" source="FJl1J5I9ZmA5juQWh-69-151" target="FJl1J5I9ZmA5juQWh-69-354">
          <mxGeometry width="50" height="50" relative="1" as="geometry">
            <mxPoint x="1300" y="1550" as="sourcePoint" />
            <mxPoint x="1470" y="1400" as="targetPoint" />
          </mxGeometry>
        </mxCell>
        <mxCell id="FJl1J5I9ZmA5juQWh-69-153" value="Y" style="rounded=0;whiteSpace=wrap;html=1;fontSize=34;fillColor=#d5e8d4;strokeColor=#82b366;" vertex="1" parent="1">
          <mxGeometry x="1350" y="1400" width="60" height="60" as="geometry" />
        </mxCell>
        <mxCell id="FJl1J5I9ZmA5juQWh-69-178" value="callable" style="rounded=0;whiteSpace=wrap;html=1;fillColor=#dae8fc;strokeColor=#6c8ebf;" vertex="1" parent="1">
          <mxGeometry x="1670" y="1310" width="80" height="80" as="geometry" />
        </mxCell>
        <mxCell id="FJl1J5I9ZmA5juQWh-69-179" value="arg 1" style="rounded=0;whiteSpace=wrap;html=1;fontStyle=1" vertex="1" parent="1">
          <mxGeometry x="1550" y="1290" width="80" height="80" as="geometry" />
        </mxCell>
        <mxCell id="FJl1J5I9ZmA5juQWh-69-180" value="arg 2" style="rounded=0;whiteSpace=wrap;html=1;fontStyle=1" vertex="1" parent="1">
          <mxGeometry x="1550" y="1370" width="80" height="80" as="geometry" />
        </mxCell>
        <mxCell id="FJl1J5I9ZmA5juQWh-69-181" value="arg 3" style="rounded=0;whiteSpace=wrap;html=1;fontStyle=1" vertex="1" parent="1">
          <mxGeometry x="1550" y="1450" width="80" height="80" as="geometry" />
        </mxCell>
        <mxCell id="FJl1J5I9ZmA5juQWh-69-192" value="C" style="rounded=0;whiteSpace=wrap;html=1;" vertex="1" parent="1">
          <mxGeometry x="1710" y="1390" width="40" height="40" as="geometry" />
        </mxCell>
        <mxCell id="FJl1J5I9ZmA5juQWh-69-193" value="E" style="rounded=0;whiteSpace=wrap;html=1;" vertex="1" parent="1">
          <mxGeometry x="1670" y="1390" width="40" height="40" as="geometry" />
        </mxCell>
        <mxCell id="FJl1J5I9ZmA5juQWh-69-197" value="State" style="rounded=0;whiteSpace=wrap;html=1;fillColor=#dae8fc;strokeColor=#6c8ebf;fontSize=15;fontStyle=1;fontFamily=Courier New;" vertex="1" parent="1">
          <mxGeometry x="1870" y="1370" width="120" height="40" as="geometry" />
        </mxCell>
        <mxCell id="FJl1J5I9ZmA5juQWh-69-198" value="C" style="rounded=0;whiteSpace=wrap;html=1;" vertex="1" parent="1">
          <mxGeometry x="1870" y="1410" width="120" height="40" as="geometry" />
        </mxCell>
        <mxCell id="FJl1J5I9ZmA5juQWh-69-199" value="E" style="rounded=0;whiteSpace=wrap;html=1;" vertex="1" parent="1">
          <mxGeometry x="1870" y="1450" width="120" height="40" as="geometry" />
        </mxCell>
        <mxCell id="FJl1J5I9ZmA5juQWh-69-200" value="" style="shape=flexArrow;endArrow=classic;html=1;rounded=0;fillColor=#f8cecc;strokeColor=#b85450;exitX=0.75;exitY=1;exitDx=0;exitDy=0;" edge="1" parent="1" source="FJl1J5I9ZmA5juQWh-69-193">
          <mxGeometry width="50" height="50" relative="1" as="geometry">
            <mxPoint x="1720" y="1510" as="sourcePoint" />
            <mxPoint x="1860" y="1470" as="targetPoint" />
          </mxGeometry>
        </mxCell>
        <mxCell id="FJl1J5I9ZmA5juQWh-69-201" value="" style="shape=flexArrow;endArrow=classic;html=1;rounded=0;fillColor=#f8cecc;strokeColor=#b85450;" edge="1" parent="1">
          <mxGeometry width="50" height="50" relative="1" as="geometry">
            <mxPoint x="1760" y="1410" as="sourcePoint" />
            <mxPoint x="1860" y="1430" as="targetPoint" />
          </mxGeometry>
        </mxCell>
        <mxCell id="FJl1J5I9ZmA5juQWh-69-202" value="" style="shape=partialRectangle;whiteSpace=wrap;html=1;bottom=1;right=1;left=1;top=0;fillColor=none;routingCenterX=-0.5;direction=west;" vertex="1" parent="1">
          <mxGeometry y="1640" width="80" height="60" as="geometry" />
        </mxCell>
        <mxCell id="FJl1J5I9ZmA5juQWh-69-203" value="" style="shape=partialRectangle;whiteSpace=wrap;html=1;bottom=1;right=1;left=1;top=0;fillColor=none;routingCenterX=-0.5;direction=west;" vertex="1" parent="1">
          <mxGeometry x="440" y="1640" width="80" height="60" as="geometry" />
        </mxCell>
        <mxCell id="FJl1J5I9ZmA5juQWh-69-209" value="" style="group;fontFamily=Courier New;fontStyle=1;fontSize=22;" vertex="1" connectable="0" parent="1">
          <mxGeometry y="2170" width="130" height="40" as="geometry" />
        </mxCell>
        <mxCell id="FJl1J5I9ZmA5juQWh-69-207" value="" style="shape=flexArrow;endArrow=classic;html=1;rounded=0;" edge="1" parent="FJl1J5I9ZmA5juQWh-69-209">
          <mxGeometry width="50" height="50" relative="1" as="geometry">
            <mxPoint x="60" y="20" as="sourcePoint" />
            <mxPoint x="130" y="20" as="targetPoint" />
          </mxGeometry>
        </mxCell>
        <mxCell id="FJl1J5I9ZmA5juQWh-69-208" value="SP" style="rounded=0;whiteSpace=wrap;html=1;fontFamily=Courier New;fontStyle=1;fontSize=22;" vertex="1" parent="FJl1J5I9ZmA5juQWh-69-209">
          <mxGeometry width="40" height="40" as="geometry" />
        </mxCell>
        <mxCell id="FJl1J5I9ZmA5juQWh-69-210" value="" style="group" vertex="1" connectable="0" parent="1">
          <mxGeometry y="2650" width="130" height="40" as="geometry" />
        </mxCell>
        <mxCell id="FJl1J5I9ZmA5juQWh-69-205" value="" style="shape=flexArrow;endArrow=classic;html=1;rounded=0;" edge="1" parent="FJl1J5I9ZmA5juQWh-69-210">
          <mxGeometry width="50" height="50" relative="1" as="geometry">
            <mxPoint x="60" y="20" as="sourcePoint" />
            <mxPoint x="130" y="20" as="targetPoint" />
          </mxGeometry>
        </mxCell>
        <mxCell id="FJl1J5I9ZmA5juQWh-69-206" value="0" style="rounded=0;whiteSpace=wrap;html=1;fontFamily=Courier New;fontStyle=1;fontSize=24;" vertex="1" parent="FJl1J5I9ZmA5juQWh-69-210">
          <mxGeometry width="40" height="40" as="geometry" />
        </mxCell>
        <mxCell id="FJl1J5I9ZmA5juQWh-69-211" value="" style="group;fontFamily=Courier New;fontStyle=1;fontSize=22;" vertex="1" connectable="0" parent="1">
          <mxGeometry x="-150" y="1300" width="130" height="40" as="geometry" />
        </mxCell>
        <mxCell id="FJl1J5I9ZmA5juQWh-69-212" value="" style="shape=flexArrow;endArrow=classic;html=1;rounded=0;" edge="1" parent="FJl1J5I9ZmA5juQWh-69-211">
          <mxGeometry width="50" height="50" relative="1" as="geometry">
            <mxPoint x="60" y="20" as="sourcePoint" />
            <mxPoint x="130" y="20" as="targetPoint" />
          </mxGeometry>
        </mxCell>
        <mxCell id="FJl1J5I9ZmA5juQWh-69-213" value="SP" style="rounded=0;whiteSpace=wrap;html=1;fontFamily=Courier New;fontStyle=1;fontSize=22;" vertex="1" parent="FJl1J5I9ZmA5juQWh-69-211">
          <mxGeometry width="40" height="40" as="geometry" />
        </mxCell>
        <mxCell id="FJl1J5I9ZmA5juQWh-69-214" value="" style="group" vertex="1" connectable="0" parent="1">
          <mxGeometry x="-150" y="1680" width="130" height="40" as="geometry" />
        </mxCell>
        <mxCell id="FJl1J5I9ZmA5juQWh-69-215" value="" style="shape=flexArrow;endArrow=classic;html=1;rounded=0;" edge="1" parent="FJl1J5I9ZmA5juQWh-69-214">
          <mxGeometry width="50" height="50" relative="1" as="geometry">
            <mxPoint x="60" y="20" as="sourcePoint" />
            <mxPoint x="130" y="20" as="targetPoint" />
          </mxGeometry>
        </mxCell>
        <mxCell id="FJl1J5I9ZmA5juQWh-69-216" value="0" style="rounded=0;whiteSpace=wrap;html=1;fontFamily=Courier New;fontStyle=1;fontSize=24;" vertex="1" parent="FJl1J5I9ZmA5juQWh-69-214">
          <mxGeometry width="40" height="40" as="geometry" />
        </mxCell>
        <mxCell id="FJl1J5I9ZmA5juQWh-69-217" value="" style="group" vertex="1" connectable="0" parent="1">
          <mxGeometry x="300" y="1680" width="130" height="40" as="geometry" />
        </mxCell>
        <mxCell id="FJl1J5I9ZmA5juQWh-69-218" value="" style="shape=flexArrow;endArrow=classic;html=1;rounded=0;" edge="1" parent="FJl1J5I9ZmA5juQWh-69-217">
          <mxGeometry width="50" height="50" relative="1" as="geometry">
            <mxPoint x="60" y="20" as="sourcePoint" />
            <mxPoint x="130" y="20" as="targetPoint" />
          </mxGeometry>
        </mxCell>
        <mxCell id="FJl1J5I9ZmA5juQWh-69-219" value="0" style="rounded=0;whiteSpace=wrap;html=1;fontFamily=Courier New;fontStyle=1;fontSize=24;" vertex="1" parent="FJl1J5I9ZmA5juQWh-69-217">
          <mxGeometry width="40" height="40" as="geometry" />
        </mxCell>
        <mxCell id="FJl1J5I9ZmA5juQWh-69-220" value="" style="group;fontFamily=Courier New;fontStyle=1;fontSize=22;" vertex="1" connectable="0" parent="1">
          <mxGeometry x="300" y="1380" width="130" height="40" as="geometry" />
        </mxCell>
        <mxCell id="FJl1J5I9ZmA5juQWh-69-221" value="" style="shape=flexArrow;endArrow=classic;html=1;rounded=0;" edge="1" parent="FJl1J5I9ZmA5juQWh-69-220">
          <mxGeometry width="50" height="50" relative="1" as="geometry">
            <mxPoint x="60" y="20" as="sourcePoint" />
            <mxPoint x="130" y="20" as="targetPoint" />
          </mxGeometry>
        </mxCell>
        <mxCell id="FJl1J5I9ZmA5juQWh-69-222" value="SP" style="rounded=0;whiteSpace=wrap;html=1;fontFamily=Courier New;fontStyle=1;fontSize=22;" vertex="1" parent="FJl1J5I9ZmA5juQWh-69-220">
          <mxGeometry width="40" height="40" as="geometry" />
        </mxCell>
        <mxCell id="FJl1J5I9ZmA5juQWh-69-223" value="" style="group" vertex="1" connectable="0" parent="1">
          <mxGeometry x="1410" y="1510" width="130" height="40" as="geometry" />
        </mxCell>
        <mxCell id="FJl1J5I9ZmA5juQWh-69-224" value="" style="shape=flexArrow;endArrow=classic;html=1;rounded=0;" edge="1" parent="FJl1J5I9ZmA5juQWh-69-223">
          <mxGeometry width="50" height="50" relative="1" as="geometry">
            <mxPoint x="60" y="20" as="sourcePoint" />
            <mxPoint x="130" y="20" as="targetPoint" />
          </mxGeometry>
        </mxCell>
        <mxCell id="FJl1J5I9ZmA5juQWh-69-225" value="0" style="rounded=0;whiteSpace=wrap;html=1;fontFamily=Courier New;fontStyle=1;fontSize=24;" vertex="1" parent="FJl1J5I9ZmA5juQWh-69-223">
          <mxGeometry width="40" height="40" as="geometry" />
        </mxCell>
        <mxCell id="FJl1J5I9ZmA5juQWh-69-226" value="" style="group;fontFamily=Courier New;fontStyle=1;fontSize=22;" vertex="1" connectable="0" parent="1">
          <mxGeometry x="1410" y="1270" width="130" height="40" as="geometry" />
        </mxCell>
        <mxCell id="FJl1J5I9ZmA5juQWh-69-227" value="" style="shape=flexArrow;endArrow=classic;html=1;rounded=0;" edge="1" parent="FJl1J5I9ZmA5juQWh-69-226">
          <mxGeometry width="50" height="50" relative="1" as="geometry">
            <mxPoint x="60" y="20" as="sourcePoint" />
            <mxPoint x="130" y="20" as="targetPoint" />
          </mxGeometry>
        </mxCell>
        <mxCell id="FJl1J5I9ZmA5juQWh-69-228" value="SP" style="rounded=0;whiteSpace=wrap;html=1;fontFamily=Courier New;fontStyle=1;fontSize=22;" vertex="1" parent="FJl1J5I9ZmA5juQWh-69-226">
          <mxGeometry width="40" height="40" as="geometry" />
        </mxCell>
        <mxCell id="FJl1J5I9ZmA5juQWh-69-229" value="" style="shape=flexArrow;endArrow=classic;html=1;rounded=0;fillColor=#d5e8d4;strokeColor=#82b366;exitX=1;exitY=1;exitDx=0;exitDy=0;entryX=0;entryY=0.5;entryDx=0;entryDy=0;" edge="1" parent="1" source="FJl1J5I9ZmA5juQWh-69-151" target="FJl1J5I9ZmA5juQWh-69-231">
          <mxGeometry width="50" height="50" relative="1" as="geometry">
            <mxPoint x="1310" y="1640" as="sourcePoint" />
            <mxPoint x="1980" y="1750" as="targetPoint" />
          </mxGeometry>
        </mxCell>
        <mxCell id="FJl1J5I9ZmA5juQWh-69-230" value="N" style="rounded=0;whiteSpace=wrap;html=1;fontSize=34;fillColor=#d5e8d4;strokeColor=#82b366;" vertex="1" parent="1">
          <mxGeometry x="1730" y="1700" width="60" height="60" as="geometry" />
        </mxCell>
        <mxCell id="FJl1J5I9ZmA5juQWh-69-231" value="naargs == 0" style="rounded=0;whiteSpace=wrap;html=1;fontSize=34;fillColor=#d5e8d4;strokeColor=#82b366;" vertex="1" parent="1">
          <mxGeometry x="1980" y="1760" width="200" height="80" as="geometry" />
        </mxCell>
        <mxCell id="FJl1J5I9ZmA5juQWh-69-232" value="" style="shape=flexArrow;endArrow=classic;html=1;rounded=0;fillColor=#d5e8d4;strokeColor=#82b366;exitX=0.5;exitY=1;exitDx=0;exitDy=0;entryX=0;entryY=0.5;entryDx=0;entryDy=0;" edge="1" parent="1" source="FJl1J5I9ZmA5juQWh-69-231" target="FJl1J5I9ZmA5juQWh-69-235">
          <mxGeometry width="50" height="50" relative="1" as="geometry">
            <mxPoint x="2090" y="1860" as="sourcePoint" />
            <mxPoint x="2130" y="1950" as="targetPoint" />
          </mxGeometry>
        </mxCell>
        <mxCell id="FJl1J5I9ZmA5juQWh-69-233" value="Y" style="rounded=0;whiteSpace=wrap;html=1;fontSize=34;fillColor=#d5e8d4;strokeColor=#82b366;" vertex="1" parent="1">
          <mxGeometry x="2070" y="1890" width="60" height="60" as="geometry" />
        </mxCell>
        <mxCell id="FJl1J5I9ZmA5juQWh-69-234" value="callable" style="rounded=0;whiteSpace=wrap;html=1;fillColor=#dae8fc;strokeColor=#6c8ebf;" vertex="1" parent="1">
          <mxGeometry x="2160" y="1970" width="80" height="80" as="geometry" />
        </mxCell>
        <mxCell id="FJl1J5I9ZmA5juQWh-69-235" value="push callable" style="rounded=0;whiteSpace=wrap;html=1;fontSize=34;fillColor=#d5e8d4;strokeColor=#82b366;" vertex="1" parent="1">
          <mxGeometry x="2160" y="1890" width="210" height="60" as="geometry" />
        </mxCell>
        <mxCell id="FJl1J5I9ZmA5juQWh-69-236" value="" style="shape=flexArrow;endArrow=classic;html=1;rounded=0;fillColor=#d5e8d4;strokeColor=#82b366;exitX=1;exitY=0.5;exitDx=0;exitDy=0;entryX=0;entryY=0.5;entryDx=0;entryDy=0;" edge="1" parent="1" source="FJl1J5I9ZmA5juQWh-69-231" target="FJl1J5I9ZmA5juQWh-69-238">
          <mxGeometry width="50" height="50" relative="1" as="geometry">
            <mxPoint x="2200" y="1770" as="sourcePoint" />
            <mxPoint x="2380" y="1750" as="targetPoint" />
          </mxGeometry>
        </mxCell>
        <mxCell id="FJl1J5I9ZmA5juQWh-69-237" value="N" style="rounded=0;whiteSpace=wrap;html=1;fontSize=34;fillColor=#d5e8d4;strokeColor=#82b366;" vertex="1" parent="1">
          <mxGeometry x="2240" y="1700" width="60" height="60" as="geometry" />
        </mxCell>
        <mxCell id="FJl1J5I9ZmA5juQWh-69-238" value="naargs&amp;nbsp; &amp;lt; clo.pending" style="rounded=0;whiteSpace=wrap;html=1;fontSize=34;fillColor=#d5e8d4;strokeColor=#82b366;" vertex="1" parent="1">
          <mxGeometry x="2390" y="1680" width="200" height="80" as="geometry" />
        </mxCell>
        <mxCell id="FJl1J5I9ZmA5juQWh-69-239" value="" style="shape=flexArrow;endArrow=classic;html=1;rounded=0;fillColor=#d5e8d4;strokeColor=#82b366;exitX=1;exitY=0.5;exitDx=0;exitDy=0;entryX=0;entryY=0.5;entryDx=0;entryDy=0;" edge="1" parent="1" source="FJl1J5I9ZmA5juQWh-69-238" target="FJl1J5I9ZmA5juQWh-69-241">
          <mxGeometry width="50" height="50" relative="1" as="geometry">
            <mxPoint x="2620" y="1710" as="sourcePoint" />
            <mxPoint x="2800" y="1690" as="targetPoint" />
          </mxGeometry>
        </mxCell>
        <mxCell id="FJl1J5I9ZmA5juQWh-69-240" value="N" style="rounded=0;whiteSpace=wrap;html=1;fontSize=34;fillColor=#d5e8d4;strokeColor=#82b366;" vertex="1" parent="1">
          <mxGeometry x="2680" y="1640" width="60" height="60" as="geometry" />
        </mxCell>
        <mxCell id="FJl1J5I9ZmA5juQWh-69-241" value="ERROR" style="rounded=0;whiteSpace=wrap;html=1;fontSize=34;fillColor=#d5e8d4;strokeColor=#82b366;" vertex="1" parent="1">
          <mxGeometry x="2820" y="1650" width="200" height="80" as="geometry" />
        </mxCell>
        <mxCell id="FJl1J5I9ZmA5juQWh-69-242" value="" style="shape=flexArrow;endArrow=classic;html=1;rounded=0;fillColor=#d5e8d4;strokeColor=#82b366;exitX=1;exitY=1;exitDx=0;exitDy=0;entryX=0;entryY=0;entryDx=0;entryDy=0;" edge="1" parent="1" source="FJl1J5I9ZmA5juQWh-69-238" target="FJl1J5I9ZmA5juQWh-69-256">
          <mxGeometry width="50" height="50" relative="1" as="geometry">
            <mxPoint x="2600" y="1770" as="sourcePoint" />
            <mxPoint x="2730" y="1900" as="targetPoint" />
          </mxGeometry>
        </mxCell>
        <mxCell id="FJl1J5I9ZmA5juQWh-69-243" value="Y" style="rounded=0;whiteSpace=wrap;html=1;fontSize=34;fillColor=#d5e8d4;strokeColor=#82b366;" vertex="1" parent="1">
          <mxGeometry x="2750" y="1850" width="60" height="60" as="geometry" />
        </mxCell>
        <mxCell id="FJl1J5I9ZmA5juQWh-69-244" value="callable" style="rounded=0;whiteSpace=wrap;html=1;fillColor=#dae8fc;strokeColor=#6c8ebf;" vertex="1" parent="1">
          <mxGeometry x="3070" y="2080" width="80" height="80" as="geometry" />
        </mxCell>
        <mxCell id="FJl1J5I9ZmA5juQWh-69-245" value="C" style="rounded=0;whiteSpace=wrap;html=1;" vertex="1" parent="1">
          <mxGeometry x="3110" y="2160" width="40" height="40" as="geometry" />
        </mxCell>
        <mxCell id="FJl1J5I9ZmA5juQWh-69-246" value="E" style="rounded=0;whiteSpace=wrap;html=1;" vertex="1" parent="1">
          <mxGeometry x="3070" y="2160" width="40" height="40" as="geometry" />
        </mxCell>
        <mxCell id="FJl1J5I9ZmA5juQWh-69-247" value="arg 1" style="rounded=0;whiteSpace=wrap;html=1;fontStyle=1" vertex="1" parent="1">
          <mxGeometry x="2700" y="1930" width="80" height="80" as="geometry" />
        </mxCell>
        <mxCell id="FJl1J5I9ZmA5juQWh-69-248" value="arg 2" style="rounded=0;whiteSpace=wrap;html=1;fontStyle=1" vertex="1" parent="1">
          <mxGeometry x="2700" y="2010" width="80" height="80" as="geometry" />
        </mxCell>
        <mxCell id="FJl1J5I9ZmA5juQWh-69-249" value="arg 3" style="rounded=0;whiteSpace=wrap;html=1;fontStyle=1" vertex="1" parent="1">
          <mxGeometry x="2700" y="2090" width="80" height="80" as="geometry" />
        </mxCell>
        <mxCell id="FJl1J5I9ZmA5juQWh-69-255" value="E" style="rounded=0;whiteSpace=wrap;html=1;" vertex="1" parent="1">
          <mxGeometry x="2980" y="2050" width="40" height="40" as="geometry" />
        </mxCell>
        <mxCell id="FJl1J5I9ZmA5juQWh-69-256" value="new env (naargs)" style="rounded=0;whiteSpace=wrap;html=1;fontSize=34;fillColor=#d5e8d4;strokeColor=#82b366;" vertex="1" parent="1">
          <mxGeometry x="3000" y="1930" width="270" height="120" as="geometry" />
        </mxCell>
        <mxCell id="FJl1J5I9ZmA5juQWh-69-257" value="" style="shape=flexArrow;endArrow=classic;html=1;rounded=0;exitX=0.5;exitY=1;exitDx=0;exitDy=0;entryX=0;entryY=0.25;entryDx=0;entryDy=0;" edge="1" parent="1" source="FJl1J5I9ZmA5juQWh-69-255" target="FJl1J5I9ZmA5juQWh-69-246">
          <mxGeometry width="50" height="50" relative="1" as="geometry">
            <mxPoint x="2890" y="2060" as="sourcePoint" />
            <mxPoint x="2900" y="2130" as="targetPoint" />
          </mxGeometry>
        </mxCell>
        <mxCell id="FJl1J5I9ZmA5juQWh-69-258" value="" style="shape=flexArrow;endArrow=classic;html=1;rounded=0;fillColor=#d5e8d4;strokeColor=#82b366;exitX=0;exitY=1;exitDx=0;exitDy=0;entryX=0.75;entryY=0;entryDx=0;entryDy=0;" edge="1" parent="1" source="FJl1J5I9ZmA5juQWh-69-256" target="FJl1J5I9ZmA5juQWh-69-274">
          <mxGeometry width="50" height="50" relative="1" as="geometry">
            <mxPoint x="2820" y="2180" as="sourcePoint" />
            <mxPoint x="2820" y="2270" as="targetPoint" />
          </mxGeometry>
        </mxCell>
        <mxCell id="FJl1J5I9ZmA5juQWh-69-259" value="" style="shape=flexArrow;endArrow=classic;html=1;rounded=0;fillColor=#f8cecc;strokeColor=#b85450;" edge="1" parent="1">
          <mxGeometry width="50" height="50" relative="1" as="geometry">
            <mxPoint x="2800" y="1970" as="sourcePoint" />
            <mxPoint x="2980" y="2060" as="targetPoint" />
          </mxGeometry>
        </mxCell>
        <mxCell id="FJl1J5I9ZmA5juQWh-69-260" value="" style="shape=flexArrow;endArrow=classic;html=1;rounded=0;fillColor=#f8cecc;strokeColor=#b85450;" edge="1" parent="1">
          <mxGeometry width="50" height="50" relative="1" as="geometry">
            <mxPoint x="2800" y="2050" as="sourcePoint" />
            <mxPoint x="2980" y="2070" as="targetPoint" />
          </mxGeometry>
        </mxCell>
        <mxCell id="FJl1J5I9ZmA5juQWh-69-261" value="" style="shape=flexArrow;endArrow=classic;html=1;rounded=0;fillColor=#f8cecc;strokeColor=#b85450;" edge="1" parent="1">
          <mxGeometry width="50" height="50" relative="1" as="geometry">
            <mxPoint x="2800" y="2130" as="sourcePoint" />
            <mxPoint x="2970" y="2080" as="targetPoint" />
          </mxGeometry>
        </mxCell>
        <mxCell id="FJl1J5I9ZmA5juQWh-69-262" value="callable" style="rounded=0;whiteSpace=wrap;html=1;fillColor=#dae8fc;strokeColor=#6c8ebf;" vertex="1" parent="1">
          <mxGeometry x="2760" y="2440" width="80" height="80" as="geometry" />
        </mxCell>
        <mxCell id="FJl1J5I9ZmA5juQWh-69-263" value="C" style="rounded=0;whiteSpace=wrap;html=1;" vertex="1" parent="1">
          <mxGeometry x="2800" y="2520" width="40" height="40" as="geometry" />
        </mxCell>
        <mxCell id="FJl1J5I9ZmA5juQWh-69-264" value="E" style="rounded=0;whiteSpace=wrap;html=1;" vertex="1" parent="1">
          <mxGeometry x="2760" y="2520" width="40" height="40" as="geometry" />
        </mxCell>
        <mxCell id="FJl1J5I9ZmA5juQWh-69-265" value="arg 1" style="rounded=0;whiteSpace=wrap;html=1;fontStyle=1" vertex="1" parent="1">
          <mxGeometry x="2600" y="2440" width="80" height="80" as="geometry" />
        </mxCell>
        <mxCell id="FJl1J5I9ZmA5juQWh-69-266" value="arg 2" style="rounded=0;whiteSpace=wrap;html=1;fontStyle=1" vertex="1" parent="1">
          <mxGeometry x="2600" y="2520" width="80" height="80" as="geometry" />
        </mxCell>
        <mxCell id="FJl1J5I9ZmA5juQWh-69-267" value="arg 3" style="rounded=0;whiteSpace=wrap;html=1;fontStyle=1" vertex="1" parent="1">
          <mxGeometry x="2600" y="2600" width="80" height="80" as="geometry" />
        </mxCell>
        <mxCell id="FJl1J5I9ZmA5juQWh-69-273" value="E" style="rounded=0;whiteSpace=wrap;html=1;" vertex="1" parent="1">
          <mxGeometry x="2600" y="2400" width="40" height="40" as="geometry" />
        </mxCell>
        <mxCell id="FJl1J5I9ZmA5juQWh-69-274" value="create new pclo and push" style="rounded=0;whiteSpace=wrap;html=1;fontSize=34;fillColor=#d5e8d4;strokeColor=#82b366;" vertex="1" parent="1">
          <mxGeometry x="2710" y="2280" width="270" height="120" as="geometry" />
        </mxCell>
        <mxCell id="FJl1J5I9ZmA5juQWh-69-275" value="" style="shape=flexArrow;endArrow=classic;html=1;rounded=0;exitX=0.5;exitY=1;exitDx=0;exitDy=0;entryX=0;entryY=0.5;entryDx=0;entryDy=0;" edge="1" parent="1" source="FJl1J5I9ZmA5juQWh-69-273" target="FJl1J5I9ZmA5juQWh-69-264">
          <mxGeometry width="50" height="50" relative="1" as="geometry">
            <mxPoint x="2790" y="2570" as="sourcePoint" />
            <mxPoint x="2760" y="2630" as="targetPoint" />
          </mxGeometry>
        </mxCell>
        <mxCell id="FJl1J5I9ZmA5juQWh-69-278" value="next" style="edgeLabel;html=1;align=center;verticalAlign=middle;resizable=0;points=[];" vertex="1" connectable="0" parent="FJl1J5I9ZmA5juQWh-69-275">
          <mxGeometry x="0.1908" y="-3" relative="1" as="geometry">
            <mxPoint as="offset" />
          </mxGeometry>
        </mxCell>
        <mxCell id="FJl1J5I9ZmA5juQWh-69-276" value="C" style="rounded=0;whiteSpace=wrap;html=1;" vertex="1" parent="1">
          <mxGeometry x="2640" y="2400" width="40" height="40" as="geometry" />
        </mxCell>
        <mxCell id="FJl1J5I9ZmA5juQWh-69-277" value="callable" style="rounded=0;whiteSpace=wrap;html=1;fillColor=#dae8fc;strokeColor=#6c8ebf;" vertex="1" parent="1">
          <mxGeometry x="2600" y="2320" width="80" height="80" as="geometry" />
        </mxCell>
        <mxCell id="FJl1J5I9ZmA5juQWh-69-279" value="next" style="text;html=1;align=center;verticalAlign=middle;resizable=0;points=[];autosize=1;strokeColor=none;fillColor=none;" vertex="1" parent="1">
          <mxGeometry x="2980" y="2115" width="50" height="30" as="geometry" />
        </mxCell>
        <mxCell id="FJl1J5I9ZmA5juQWh-69-280" value="Odd, I&#39;d expect it to remove the args from the stack here" style="shape=note;whiteSpace=wrap;html=1;backgroundOutline=1;darkOpacity=0.05;fillColor=#fff2cc;strokeColor=#d6b656;" vertex="1" parent="1">
          <mxGeometry x="2690" y="2690" width="80" height="100" as="geometry" />
        </mxCell>
        <mxCell id="FJl1J5I9ZmA5juQWh-69-282" value="" style="shape=flexArrow;endArrow=classic;html=1;rounded=0;fillColor=#d5e8d4;strokeColor=#82b366;exitX=0.75;exitY=0;exitDx=0;exitDy=0;entryX=0;entryY=1;entryDx=0;entryDy=0;" edge="1" parent="1" source="FJl1J5I9ZmA5juQWh-69-12" target="FJl1J5I9ZmA5juQWh-69-283">
          <mxGeometry width="50" height="50" relative="1" as="geometry">
            <mxPoint x="830" y="1459.5" as="sourcePoint" />
            <mxPoint x="1740" y="880" as="targetPoint" />
          </mxGeometry>
        </mxCell>
        <mxCell id="FJl1J5I9ZmA5juQWh-69-283" value="kont == NULL" style="rounded=0;whiteSpace=wrap;html=1;fontSize=34;fillColor=#d5e8d4;strokeColor=#82b366;" vertex="1" parent="1">
          <mxGeometry x="1760" y="840" width="200" height="80" as="geometry" />
        </mxCell>
        <mxCell id="FJl1J5I9ZmA5juQWh-69-284" value="" style="shape=flexArrow;endArrow=classic;html=1;rounded=0;fillColor=#d5e8d4;strokeColor=#82b366;exitX=1;exitY=0;exitDx=0;exitDy=0;" edge="1" parent="1" source="FJl1J5I9ZmA5juQWh-69-283">
          <mxGeometry width="50" height="50" relative="1" as="geometry">
            <mxPoint x="1970" y="840" as="sourcePoint" />
            <mxPoint x="2090" y="710" as="targetPoint" />
          </mxGeometry>
        </mxCell>
        <mxCell id="FJl1J5I9ZmA5juQWh-69-285" value="Y" style="rounded=0;whiteSpace=wrap;html=1;fontSize=34;fillColor=#d5e8d4;strokeColor=#82b366;" vertex="1" parent="1">
          <mxGeometry x="1980" y="740" width="60" height="60" as="geometry" />
        </mxCell>
        <mxCell id="FJl1J5I9ZmA5juQWh-69-286" value="State" style="rounded=0;whiteSpace=wrap;html=1;fillColor=#dae8fc;strokeColor=#6c8ebf;fontSize=15;fontStyle=1;fontFamily=Courier New;" vertex="1" parent="1">
          <mxGeometry x="2110" y="590" width="120" height="40" as="geometry" />
        </mxCell>
        <mxCell id="FJl1J5I9ZmA5juQWh-69-287" value="C" style="rounded=0;whiteSpace=wrap;html=1;" vertex="1" parent="1">
          <mxGeometry x="2110" y="630" width="120" height="40" as="geometry" />
        </mxCell>
        <mxCell id="FJl1J5I9ZmA5juQWh-69-289" value="END" style="rounded=0;whiteSpace=wrap;html=1;fontSize=34;fillColor=#f8cecc;strokeColor=#b85450;" vertex="1" parent="1">
          <mxGeometry x="2350" y="610" width="200" height="80" as="geometry" />
        </mxCell>
        <mxCell id="FJl1J5I9ZmA5juQWh-69-290" value="" style="shape=flexArrow;endArrow=classic;html=1;rounded=0;fillColor=#f8cecc;strokeColor=#b85450;" edge="1" parent="1">
          <mxGeometry width="50" height="50" relative="1" as="geometry">
            <mxPoint x="2340" y="650" as="sourcePoint" />
            <mxPoint x="2240" y="650" as="targetPoint" />
          </mxGeometry>
        </mxCell>
        <mxCell id="FJl1J5I9ZmA5juQWh-69-291" value="" style="shape=flexArrow;endArrow=classic;html=1;rounded=0;fillColor=#d5e8d4;strokeColor=#82b366;exitX=1;exitY=1;exitDx=0;exitDy=0;entryX=0;entryY=0.25;entryDx=0;entryDy=0;" edge="1" parent="1" source="FJl1J5I9ZmA5juQWh-69-283" target="FJl1J5I9ZmA5juQWh-69-302">
          <mxGeometry width="50" height="50" relative="1" as="geometry">
            <mxPoint x="1990" y="905" as="sourcePoint" />
            <mxPoint x="2120" y="990" as="targetPoint" />
          </mxGeometry>
        </mxCell>
        <mxCell id="FJl1J5I9ZmA5juQWh-69-292" value="N" style="rounded=0;whiteSpace=wrap;html=1;fontSize=34;fillColor=#d5e8d4;strokeColor=#82b366;" vertex="1" parent="1">
          <mxGeometry x="2020" y="970" width="60" height="60" as="geometry" />
        </mxCell>
        <mxCell id="FJl1J5I9ZmA5juQWh-69-293" value="result" style="rounded=0;whiteSpace=wrap;html=1;fontStyle=1" vertex="1" parent="1">
          <mxGeometry x="2360" y="1200" width="80" height="80" as="geometry" />
        </mxCell>
        <mxCell id="FJl1J5I9ZmA5juQWh-69-296" value="" style="group" vertex="1" connectable="0" parent="1">
          <mxGeometry x="2092.5" y="1260" width="130" height="40" as="geometry" />
        </mxCell>
        <mxCell id="FJl1J5I9ZmA5juQWh-69-297" value="" style="shape=flexArrow;endArrow=classic;html=1;rounded=0;" edge="1" parent="FJl1J5I9ZmA5juQWh-69-296">
          <mxGeometry width="50" height="50" relative="1" as="geometry">
            <mxPoint x="60" y="20" as="sourcePoint" />
            <mxPoint x="130" y="20" as="targetPoint" />
          </mxGeometry>
        </mxCell>
        <mxCell id="FJl1J5I9ZmA5juQWh-69-298" value="0" style="rounded=0;whiteSpace=wrap;html=1;fontFamily=Courier New;fontStyle=1;fontSize=24;" vertex="1" parent="FJl1J5I9ZmA5juQWh-69-296">
          <mxGeometry width="40" height="40" as="geometry" />
        </mxCell>
        <mxCell id="FJl1J5I9ZmA5juQWh-69-299" value="" style="group;fontFamily=Courier New;fontStyle=1;fontSize=22;" vertex="1" connectable="0" parent="1">
          <mxGeometry x="2092.5" y="1100" width="130" height="40" as="geometry" />
        </mxCell>
        <mxCell id="FJl1J5I9ZmA5juQWh-69-300" value="" style="shape=flexArrow;endArrow=classic;html=1;rounded=0;" edge="1" parent="FJl1J5I9ZmA5juQWh-69-299">
          <mxGeometry width="50" height="50" relative="1" as="geometry">
            <mxPoint x="60" y="20" as="sourcePoint" />
            <mxPoint x="130" y="20" as="targetPoint" />
          </mxGeometry>
        </mxCell>
        <mxCell id="FJl1J5I9ZmA5juQWh-69-301" value="SP" style="rounded=0;whiteSpace=wrap;html=1;fontFamily=Courier New;fontStyle=1;fontSize=22;" vertex="1" parent="FJl1J5I9ZmA5juQWh-69-299">
          <mxGeometry width="40" height="40" as="geometry" />
        </mxCell>
        <mxCell id="FJl1J5I9ZmA5juQWh-69-302" value="pop result" style="rounded=0;whiteSpace=wrap;html=1;fontSize=34;fillColor=#d5e8d4;strokeColor=#82b366;" vertex="1" parent="1">
          <mxGeometry x="2150" y="1020" width="210" height="60" as="geometry" />
        </mxCell>
        <mxCell id="FJl1J5I9ZmA5juQWh-69-303" value="callable" style="rounded=0;whiteSpace=wrap;html=1;fillColor=#dae8fc;strokeColor=#6c8ebf;" vertex="1" parent="1">
          <mxGeometry x="2620" y="1090" width="120" height="80" as="geometry" />
        </mxCell>
        <mxCell id="FJl1J5I9ZmA5juQWh-69-304" value="" style="shape=partialRectangle;whiteSpace=wrap;html=1;bottom=1;right=1;left=1;top=0;fillColor=none;routingCenterX=-0.5;direction=west;" vertex="1" parent="1">
          <mxGeometry x="990" y="2460" width="80" height="60" as="geometry" />
        </mxCell>
        <mxCell id="FJl1J5I9ZmA5juQWh-69-305" value="" style="group" vertex="1" connectable="0" parent="1">
          <mxGeometry x="840" y="2500" width="130" height="40" as="geometry" />
        </mxCell>
        <mxCell id="FJl1J5I9ZmA5juQWh-69-306" value="" style="shape=flexArrow;endArrow=classic;html=1;rounded=0;" edge="1" parent="FJl1J5I9ZmA5juQWh-69-305">
          <mxGeometry width="50" height="50" relative="1" as="geometry">
            <mxPoint x="60" y="20" as="sourcePoint" />
            <mxPoint x="130" y="20" as="targetPoint" />
          </mxGeometry>
        </mxCell>
        <mxCell id="FJl1J5I9ZmA5juQWh-69-307" value="0" style="rounded=0;whiteSpace=wrap;html=1;fontFamily=Courier New;fontStyle=1;fontSize=24;" vertex="1" parent="FJl1J5I9ZmA5juQWh-69-305">
          <mxGeometry width="40" height="40" as="geometry" />
        </mxCell>
        <mxCell id="FJl1J5I9ZmA5juQWh-69-308" value="" style="group;fontFamily=Courier New;fontStyle=1;fontSize=22;" vertex="1" connectable="0" parent="1">
          <mxGeometry x="850" y="2360" width="130" height="40" as="geometry" />
        </mxCell>
        <mxCell id="FJl1J5I9ZmA5juQWh-69-309" value="" style="shape=flexArrow;endArrow=classic;html=1;rounded=0;" edge="1" parent="FJl1J5I9ZmA5juQWh-69-308">
          <mxGeometry width="50" height="50" relative="1" as="geometry">
            <mxPoint x="60" y="20" as="sourcePoint" />
            <mxPoint x="130" y="20" as="targetPoint" />
          </mxGeometry>
        </mxCell>
        <mxCell id="FJl1J5I9ZmA5juQWh-69-310" value="SP" style="rounded=0;whiteSpace=wrap;html=1;fontFamily=Courier New;fontStyle=1;fontSize=22;" vertex="1" parent="FJl1J5I9ZmA5juQWh-69-308">
          <mxGeometry width="40" height="40" as="geometry" />
        </mxCell>
        <mxCell id="FJl1J5I9ZmA5juQWh-69-311" value="C" style="rounded=0;whiteSpace=wrap;html=1;" vertex="1" parent="1">
          <mxGeometry x="2700" y="1170" width="40" height="40" as="geometry" />
        </mxCell>
        <mxCell id="FJl1J5I9ZmA5juQWh-69-312" value="E" style="rounded=0;whiteSpace=wrap;html=1;" vertex="1" parent="1">
          <mxGeometry x="2660" y="1170" width="40" height="40" as="geometry" />
        </mxCell>
        <mxCell id="FJl1J5I9ZmA5juQWh-69-313" value="K" style="rounded=0;whiteSpace=wrap;html=1;" vertex="1" parent="1">
          <mxGeometry x="2620" y="1170" width="40" height="40" as="geometry" />
        </mxCell>
        <mxCell id="FJl1J5I9ZmA5juQWh-69-314" value="State" style="rounded=0;whiteSpace=wrap;html=1;fillColor=#dae8fc;strokeColor=#6c8ebf;fontSize=15;fontStyle=1;fontFamily=Courier New;" vertex="1" parent="1">
          <mxGeometry x="2790" y="1180" width="120" height="40" as="geometry" />
        </mxCell>
        <mxCell id="FJl1J5I9ZmA5juQWh-69-315" value="C" style="rounded=0;whiteSpace=wrap;html=1;" vertex="1" parent="1">
          <mxGeometry x="2790" y="1220" width="120" height="40" as="geometry" />
        </mxCell>
        <mxCell id="FJl1J5I9ZmA5juQWh-69-316" value="E" style="rounded=0;whiteSpace=wrap;html=1;" vertex="1" parent="1">
          <mxGeometry x="2790" y="1260" width="120" height="40" as="geometry" />
        </mxCell>
        <mxCell id="FJl1J5I9ZmA5juQWh-69-317" value="K" style="rounded=0;whiteSpace=wrap;html=1;" vertex="1" parent="1">
          <mxGeometry x="2790" y="1300" width="120" height="40" as="geometry" />
        </mxCell>
        <mxCell id="FJl1J5I9ZmA5juQWh-69-318" value="" style="shape=flexArrow;endArrow=classic;html=1;rounded=0;fillColor=#f8cecc;strokeColor=#b85450;" edge="1" parent="1">
          <mxGeometry width="50" height="50" relative="1" as="geometry">
            <mxPoint x="2720" y="1220" as="sourcePoint" />
            <mxPoint x="2780" y="1240" as="targetPoint" />
          </mxGeometry>
        </mxCell>
        <mxCell id="FJl1J5I9ZmA5juQWh-69-319" value="" style="shape=flexArrow;endArrow=classic;html=1;rounded=0;fillColor=#f8cecc;strokeColor=#b85450;" edge="1" parent="1">
          <mxGeometry width="50" height="50" relative="1" as="geometry">
            <mxPoint x="2680" y="1220" as="sourcePoint" />
            <mxPoint x="2780" y="1280" as="targetPoint" />
          </mxGeometry>
        </mxCell>
        <mxCell id="FJl1J5I9ZmA5juQWh-69-320" value="" style="shape=flexArrow;endArrow=classic;html=1;rounded=0;fillColor=#f8cecc;strokeColor=#b85450;" edge="1" parent="1">
          <mxGeometry width="50" height="50" relative="1" as="geometry">
            <mxPoint x="2680" y="1300" as="sourcePoint" />
            <mxPoint x="2780" y="1320" as="targetPoint" />
          </mxGeometry>
        </mxCell>
        <mxCell id="FJl1J5I9ZmA5juQWh-69-321" value="assign state" style="rounded=0;whiteSpace=wrap;html=1;fontSize=34;fillColor=#d5e8d4;strokeColor=#82b366;" vertex="1" parent="1">
          <mxGeometry x="2675" y="1010" width="210" height="60" as="geometry" />
        </mxCell>
        <mxCell id="FJl1J5I9ZmA5juQWh-69-322" value="" style="shape=flexArrow;endArrow=classic;html=1;rounded=0;fillColor=#d5e8d4;strokeColor=#82b366;exitX=1;exitY=0.5;exitDx=0;exitDy=0;entryX=0;entryY=0.5;entryDx=0;entryDy=0;" edge="1" parent="1" source="FJl1J5I9ZmA5juQWh-69-302" target="FJl1J5I9ZmA5juQWh-69-321">
          <mxGeometry width="50" height="50" relative="1" as="geometry">
            <mxPoint x="2370" y="1050" as="sourcePoint" />
            <mxPoint x="2660" y="1040" as="targetPoint" />
          </mxGeometry>
        </mxCell>
        <mxCell id="FJl1J5I9ZmA5juQWh-69-323" value="" style="shape=partialRectangle;whiteSpace=wrap;html=1;bottom=1;right=1;left=1;top=0;fillColor=none;routingCenterX=-0.5;direction=west;" vertex="1" parent="1">
          <mxGeometry x="2240" y="1120" width="80" height="160" as="geometry" />
        </mxCell>
        <mxCell id="FJl1J5I9ZmA5juQWh-69-324" value="restore snapshot" style="rounded=0;whiteSpace=wrap;html=1;fontSize=34;fillColor=#d5e8d4;strokeColor=#82b366;" vertex="1" parent="1">
          <mxGeometry x="3200" y="1000" width="200" height="80" as="geometry" />
        </mxCell>
        <mxCell id="FJl1J5I9ZmA5juQWh-69-325" value="result" style="rounded=0;whiteSpace=wrap;html=1;fontStyle=1" vertex="1" parent="1">
          <mxGeometry x="3320" y="1200" width="80" height="80" as="geometry" />
        </mxCell>
        <mxCell id="FJl1J5I9ZmA5juQWh-69-326" value="" style="group" vertex="1" connectable="0" parent="1">
          <mxGeometry x="3062.5" y="1260" width="130" height="40" as="geometry" />
        </mxCell>
        <mxCell id="FJl1J5I9ZmA5juQWh-69-327" value="" style="shape=flexArrow;endArrow=classic;html=1;rounded=0;" edge="1" parent="FJl1J5I9ZmA5juQWh-69-326">
          <mxGeometry width="50" height="50" relative="1" as="geometry">
            <mxPoint x="60" y="20" as="sourcePoint" />
            <mxPoint x="130" y="20" as="targetPoint" />
          </mxGeometry>
        </mxCell>
        <mxCell id="FJl1J5I9ZmA5juQWh-69-328" value="0" style="rounded=0;whiteSpace=wrap;html=1;fontFamily=Courier New;fontStyle=1;fontSize=24;" vertex="1" parent="FJl1J5I9ZmA5juQWh-69-326">
          <mxGeometry width="40" height="40" as="geometry" />
        </mxCell>
        <mxCell id="FJl1J5I9ZmA5juQWh-69-329" value="" style="group;fontFamily=Courier New;fontStyle=1;fontSize=22;" vertex="1" connectable="0" parent="1">
          <mxGeometry x="3062.5" y="1100" width="130" height="40" as="geometry" />
        </mxCell>
        <mxCell id="FJl1J5I9ZmA5juQWh-69-330" value="" style="shape=flexArrow;endArrow=classic;html=1;rounded=0;" edge="1" parent="FJl1J5I9ZmA5juQWh-69-329">
          <mxGeometry width="50" height="50" relative="1" as="geometry">
            <mxPoint x="60" y="20" as="sourcePoint" />
            <mxPoint x="130" y="20" as="targetPoint" />
          </mxGeometry>
        </mxCell>
        <mxCell id="FJl1J5I9ZmA5juQWh-69-331" value="SP" style="rounded=0;whiteSpace=wrap;html=1;fontFamily=Courier New;fontStyle=1;fontSize=22;" vertex="1" parent="FJl1J5I9ZmA5juQWh-69-329">
          <mxGeometry width="40" height="40" as="geometry" />
        </mxCell>
        <mxCell id="FJl1J5I9ZmA5juQWh-69-333" value="K" style="rounded=0;whiteSpace=wrap;html=1;" vertex="1" parent="1">
          <mxGeometry x="2620" y="1280" width="40" height="40" as="geometry" />
        </mxCell>
        <mxCell id="FJl1J5I9ZmA5juQWh-69-334" value="" style="shape=flexArrow;endArrow=classic;html=1;rounded=0;entryX=0.5;entryY=0;entryDx=0;entryDy=0;exitX=0.5;exitY=1;exitDx=0;exitDy=0;" edge="1" parent="1" source="FJl1J5I9ZmA5juQWh-69-313" target="FJl1J5I9ZmA5juQWh-69-333">
          <mxGeometry width="50" height="50" relative="1" as="geometry">
            <mxPoint x="2380" y="1060" as="sourcePoint" />
            <mxPoint x="2670" y="1050" as="targetPoint" />
          </mxGeometry>
        </mxCell>
        <mxCell id="FJl1J5I9ZmA5juQWh-69-335" value="next" style="edgeLabel;html=1;align=center;verticalAlign=middle;resizable=0;points=[];" vertex="1" connectable="0" parent="FJl1J5I9ZmA5juQWh-69-334">
          <mxGeometry x="-0.1486" y="-2" relative="1" as="geometry">
            <mxPoint as="offset" />
          </mxGeometry>
        </mxCell>
        <mxCell id="FJl1J5I9ZmA5juQWh-69-336" value="n1" style="rounded=0;whiteSpace=wrap;html=1;fontStyle=1" vertex="1" parent="1">
          <mxGeometry x="3200" y="1120" width="80" height="80" as="geometry" />
        </mxCell>
        <mxCell id="FJl1J5I9ZmA5juQWh-69-337" value="n2" style="rounded=0;whiteSpace=wrap;html=1;fontStyle=1" vertex="1" parent="1">
          <mxGeometry x="3200" y="1200" width="80" height="80" as="geometry" />
        </mxCell>
        <mxCell id="FJl1J5I9ZmA5juQWh-69-338" value="" style="shape=flexArrow;endArrow=classic;html=1;rounded=0;fillColor=#d5e8d4;strokeColor=#82b366;exitX=1;exitY=0.5;exitDx=0;exitDy=0;entryX=0;entryY=0.5;entryDx=0;entryDy=0;" edge="1" parent="1" source="FJl1J5I9ZmA5juQWh-69-321" target="FJl1J5I9ZmA5juQWh-69-324">
          <mxGeometry width="50" height="50" relative="1" as="geometry">
            <mxPoint x="2902.5" y="1040" as="sourcePoint" />
            <mxPoint x="3192.5" y="1030" as="targetPoint" />
          </mxGeometry>
        </mxCell>
        <mxCell id="FJl1J5I9ZmA5juQWh-69-339" value="push result" style="rounded=0;whiteSpace=wrap;html=1;fontSize=34;fillColor=#d5e8d4;strokeColor=#82b366;" vertex="1" parent="1">
          <mxGeometry x="3407.5" y="1400" width="200" height="80" as="geometry" />
        </mxCell>
        <mxCell id="FJl1J5I9ZmA5juQWh-69-340" value="result" style="rounded=0;whiteSpace=wrap;html=1;fontStyle=1" vertex="1" parent="1">
          <mxGeometry x="3567.5" y="1520" width="80" height="80" as="geometry" />
        </mxCell>
        <mxCell id="FJl1J5I9ZmA5juQWh-69-341" value="" style="group" vertex="1" connectable="0" parent="1">
          <mxGeometry x="3430" y="1740" width="130" height="40" as="geometry" />
        </mxCell>
        <mxCell id="FJl1J5I9ZmA5juQWh-69-342" value="" style="shape=flexArrow;endArrow=classic;html=1;rounded=0;" edge="1" parent="FJl1J5I9ZmA5juQWh-69-341">
          <mxGeometry width="50" height="50" relative="1" as="geometry">
            <mxPoint x="60" y="20" as="sourcePoint" />
            <mxPoint x="130" y="20" as="targetPoint" />
          </mxGeometry>
        </mxCell>
        <mxCell id="FJl1J5I9ZmA5juQWh-69-343" value="0" style="rounded=0;whiteSpace=wrap;html=1;fontFamily=Courier New;fontStyle=1;fontSize=24;" vertex="1" parent="FJl1J5I9ZmA5juQWh-69-341">
          <mxGeometry width="40" height="40" as="geometry" />
        </mxCell>
        <mxCell id="FJl1J5I9ZmA5juQWh-69-344" value="" style="group;fontFamily=Courier New;fontStyle=1;fontSize=22;" vertex="1" connectable="0" parent="1">
          <mxGeometry x="3430" y="1500" width="130" height="40" as="geometry" />
        </mxCell>
        <mxCell id="FJl1J5I9ZmA5juQWh-69-345" value="" style="shape=flexArrow;endArrow=classic;html=1;rounded=0;" edge="1" parent="FJl1J5I9ZmA5juQWh-69-344">
          <mxGeometry width="50" height="50" relative="1" as="geometry">
            <mxPoint x="60" y="20" as="sourcePoint" />
            <mxPoint x="130" y="20" as="targetPoint" />
          </mxGeometry>
        </mxCell>
        <mxCell id="FJl1J5I9ZmA5juQWh-69-346" value="SP" style="rounded=0;whiteSpace=wrap;html=1;fontFamily=Courier New;fontStyle=1;fontSize=22;" vertex="1" parent="FJl1J5I9ZmA5juQWh-69-344">
          <mxGeometry width="40" height="40" as="geometry" />
        </mxCell>
        <mxCell id="FJl1J5I9ZmA5juQWh-69-347" value="n1" style="rounded=0;whiteSpace=wrap;html=1;fontStyle=1" vertex="1" parent="1">
          <mxGeometry x="3567.5" y="1600" width="80" height="80" as="geometry" />
        </mxCell>
        <mxCell id="FJl1J5I9ZmA5juQWh-69-348" value="n2" style="rounded=0;whiteSpace=wrap;html=1;fontStyle=1" vertex="1" parent="1">
          <mxGeometry x="3567.5" y="1680" width="80" height="80" as="geometry" />
        </mxCell>
        <mxCell id="FJl1J5I9ZmA5juQWh-69-349" value="" style="shape=flexArrow;endArrow=classic;html=1;rounded=0;fillColor=#d5e8d4;strokeColor=#82b366;exitX=0.75;exitY=1;exitDx=0;exitDy=0;entryX=0.5;entryY=0;entryDx=0;entryDy=0;" edge="1" parent="1" source="FJl1J5I9ZmA5juQWh-69-324" target="FJl1J5I9ZmA5juQWh-69-339">
          <mxGeometry width="50" height="50" relative="1" as="geometry">
            <mxPoint x="3390" y="1110" as="sourcePoint" />
            <mxPoint x="3520" y="1390" as="targetPoint" />
          </mxGeometry>
        </mxCell>
        <mxCell id="FJl1J5I9ZmA5juQWh-69-351" value="" style="shape=flexArrow;endArrow=classic;html=1;rounded=0;fillColor=#d5e8d4;strokeColor=#82b366;exitX=0.25;exitY=0;exitDx=0;exitDy=0;entryX=0.5;entryY=1;entryDx=0;entryDy=0;" edge="1" parent="1" source="FJl1J5I9ZmA5juQWh-69-12" target="FJl1J5I9ZmA5juQWh-69-359">
          <mxGeometry width="50" height="50" relative="1" as="geometry">
            <mxPoint x="760" y="1470" as="sourcePoint" />
            <mxPoint x="710" y="1220" as="targetPoint" />
          </mxGeometry>
        </mxCell>
        <mxCell id="FJl1J5I9ZmA5juQWh-69-353" value="" style="shape=flexArrow;endArrow=classic;html=1;rounded=0;fillColor=#d5e8d4;strokeColor=#82b366;exitX=1;exitY=1;exitDx=0;exitDy=0;entryX=0;entryY=0;entryDx=0;entryDy=0;" edge="1" parent="1" source="FJl1J5I9ZmA5juQWh-69-7" target="FJl1J5I9ZmA5juQWh-69-12">
          <mxGeometry width="50" height="50" relative="1" as="geometry">
            <mxPoint x="550" y="1340" as="sourcePoint" />
            <mxPoint x="670" y="1480" as="targetPoint" />
          </mxGeometry>
        </mxCell>
        <mxCell id="FJl1J5I9ZmA5juQWh-69-354" value="assign state" style="rounded=0;whiteSpace=wrap;html=1;fontSize=34;fillColor=#d5e8d4;strokeColor=#82b366;" vertex="1" parent="1">
          <mxGeometry x="1640" y="1240" width="210" height="60" as="geometry" />
        </mxCell>
        <mxCell id="FJl1J5I9ZmA5juQWh-69-355" value="move args up" style="rounded=0;whiteSpace=wrap;html=1;fontSize=34;fillColor=#d5e8d4;strokeColor=#82b366;" vertex="1" parent="1">
          <mxGeometry x="290" y="2290" width="200" height="90" as="geometry" />
        </mxCell>
        <mxCell id="FJl1J5I9ZmA5juQWh-69-356" value="copy captured below" style="rounded=0;whiteSpace=wrap;html=1;fontSize=34;fillColor=#d5e8d4;strokeColor=#82b366;" vertex="1" parent="1">
          <mxGeometry x="150" y="2700" width="240" height="90" as="geometry" />
        </mxCell>
        <mxCell id="FJl1J5I9ZmA5juQWh-69-357" value="assign state" style="rounded=0;whiteSpace=wrap;html=1;fontSize=34;fillColor=#d5e8d4;strokeColor=#82b366;" vertex="1" parent="1">
          <mxGeometry x="470" y="2660" width="240" height="90" as="geometry" />
        </mxCell>
        <mxCell id="FJl1J5I9ZmA5juQWh-69-358" value="" style="shape=flexArrow;endArrow=classic;html=1;rounded=0;fillColor=#d5e8d4;strokeColor=#82b366;exitX=1;exitY=0.5;exitDx=0;exitDy=0;entryX=0;entryY=0.5;entryDx=0;entryDy=0;" edge="1" parent="1" source="FJl1J5I9ZmA5juQWh-69-2" target="FJl1J5I9ZmA5juQWh-69-7">
          <mxGeometry width="50" height="50" relative="1" as="geometry">
            <mxPoint x="230" y="1230" as="sourcePoint" />
            <mxPoint x="330" y="1300" as="targetPoint" />
          </mxGeometry>
        </mxCell>
        <mxCell id="FJl1J5I9ZmA5juQWh-69-350" value="BUILTIN" style="rounded=0;whiteSpace=wrap;html=1;fontSize=34;fillColor=#d5e8d4;strokeColor=#82b366;" vertex="1" parent="1">
          <mxGeometry x="620" y="1280" width="140" height="60" as="geometry" />
        </mxCell>
        <mxCell id="FJl1J5I9ZmA5juQWh-69-281" value="KONT" style="rounded=0;whiteSpace=wrap;html=1;fontSize=34;fillColor=#d5e8d4;strokeColor=#82b366;" vertex="1" parent="1">
          <mxGeometry x="1080" y="1210" width="120" height="60" as="geometry" />
        </mxCell>
        <mxCell id="FJl1J5I9ZmA5juQWh-69-149" value="CLO" style="rounded=0;whiteSpace=wrap;html=1;fontSize=34;fillColor=#d5e8d4;strokeColor=#82b366;" vertex="1" parent="1">
          <mxGeometry x="930" y="1480" width="100" height="60" as="geometry" />
        </mxCell>
        <mxCell id="FJl1J5I9ZmA5juQWh-69-14" value="PCLO" style="rounded=0;whiteSpace=wrap;html=1;fontSize=34;fillColor=#d5e8d4;strokeColor=#82b366;" vertex="1" parent="1">
          <mxGeometry x="600" y="1780" width="110" height="60" as="geometry" />
        </mxCell>
        <mxCell id="FJl1J5I9ZmA5juQWh-69-359" value="..." style="rounded=0;whiteSpace=wrap;html=1;fontSize=34;fillColor=#d5e8d4;strokeColor=#82b366;" vertex="1" parent="1">
          <mxGeometry x="610" y="1140" width="200" height="60" as="geometry" />
        </mxCell>
        <mxCell id="FJl1J5I9ZmA5juQWh-69-360" value="next" style="rounded=0;whiteSpace=wrap;html=1;" vertex="1" parent="1">
          <mxGeometry x="1720" y="2580" width="40" height="20" as="geometry" />
        </mxCell>
        <mxCell id="FJl1J5I9ZmA5juQWh-69-361" value="next" style="rounded=0;whiteSpace=wrap;html=1;" vertex="1" parent="1">
          <mxGeometry x="1620" y="2890" width="40" height="20" as="geometry" />
        </mxCell>
        <mxCell id="FJl1J5I9ZmA5juQWh-69-362" value="next" style="rounded=0;whiteSpace=wrap;html=1;" vertex="1" parent="1">
          <mxGeometry x="1710" y="2940" width="40" height="20" as="geometry" />
        </mxCell>
        <mxCell id="FJl1J5I9ZmA5juQWh-69-363" value="" style="group" vertex="1" connectable="0" parent="1">
          <mxGeometry x="-180" y="1200" width="400" height="60" as="geometry" />
        </mxCell>
        <mxCell id="FJl1J5I9ZmA5juQWh-69-1" value="applyProc" style="rounded=0;whiteSpace=wrap;html=1;fontFamily=Courier New;fontStyle=1;fontSize=34;fillColor=#d5e8d4;strokeColor=#82b366;" vertex="1" parent="FJl1J5I9ZmA5juQWh-69-363">
          <mxGeometry width="240" height="60" as="geometry" />
        </mxCell>
        <mxCell id="FJl1J5I9ZmA5juQWh-69-2" value="(naargs)" style="rounded=0;whiteSpace=wrap;html=1;fontSize=34;" vertex="1" parent="FJl1J5I9ZmA5juQWh-69-363">
          <mxGeometry x="240" width="160" height="60" as="geometry" />
        </mxCell>
      </root>
    </mxGraphModel>
  </diagram>
</mxfile>
